<svg width="40" height="40" viewBox="0 0 40 40" fill="none" xmlns="http://www.w3.org/2000/svg">
<path d="M25.9 18.8168L16.4667 9.4001C16.3117 9.24389 16.1274 9.1199 15.9243 9.03528C15.7212 8.95067 15.5034 8.9071 15.2833 8.9071C15.0633 8.9071 14.8455 8.95067 14.6424 9.03528C14.4393 9.1199 14.2549 9.24389 14.1 9.4001C13.7896 9.71237 13.6154 10.1348 13.6154 10.5751C13.6154 11.0154 13.7896 11.4378 14.1 11.7501L22.35 20.0834L14.1 28.3334C13.7896 28.6457 13.6154 29.0681 13.6154 29.5084C13.6154 29.9487 13.7896 30.3712 14.1 30.6834C14.2544 30.8409 14.4384 30.9662 14.6416 31.052C14.8447 31.1379 15.0628 31.1825 15.2833 31.1834C15.5039 31.1825 15.722 31.1379 15.9251 31.052C16.1282 30.9662 16.3123 30.8409 16.4667 30.6834L25.9 21.2668C26.0692 21.1107 26.2042 20.9213 26.2965 20.7104C26.3889 20.4996 26.4366 20.2719 26.4366 20.0418C26.4366 19.8116 26.3889 19.5839 26.2965 19.3731C26.2042 19.1623 26.0692 18.9728 25.9 18.8168V18.8168Z" fill="#97A5C1"/>
</svg>
