<svg width="40" height="40" viewBox="0 0 40 40" fill="none" xmlns="http://www.w3.org/2000/svg">
<path d="M14.1 18.8168L23.5333 9.4001C23.6883 9.24389 23.8726 9.1199 24.0757 9.03528C24.2788 8.95067 24.4966 8.9071 24.7167 8.9071C24.9367 8.9071 25.1545 8.95067 25.3576 9.03528C25.5607 9.1199 25.7451 9.24389 25.9 9.4001C26.2104 9.71237 26.3846 10.1348 26.3846 10.5751C26.3846 11.0154 26.2104 11.4378 25.9 11.7501L17.65 20.0834L25.9 28.3334C26.2104 28.6457 26.3846 29.0681 26.3846 29.5084C26.3846 29.9487 26.2104 30.3712 25.9 30.6834C25.7456 30.8409 25.5616 30.9662 25.3584 31.052C25.1553 31.1379 24.9372 31.1825 24.7167 31.1834C24.4961 31.1825 24.278 31.1379 24.0749 31.052C23.8718 30.9662 23.6877 30.8409 23.5333 30.6834L14.1 21.2668C13.9308 21.1107 13.7958 20.9213 13.7035 20.7104C13.6111 20.4996 13.5634 20.2719 13.5634 20.0418C13.5634 19.8116 13.6111 19.5839 13.7035 19.3731C13.7958 19.1623 13.9308 18.9728 14.1 18.8168V18.8168Z" fill="#97A5C1"/>
</svg>
