<svg width="20" height="20" viewBox="0 0 20 20" fill="none" xmlns="http://www.w3.org/2000/svg">
<circle cx="10" cy="10" r="10" fill="url(#paint0_linear)"/>
<path d="M13.2903 6.00024H7.20955C6.52301 6.00024 5.99994 6.52332 5.99994 7.20986V13.2906C5.99994 13.9772 6.52301 14.5002 7.20955 14.5002H13.2903C13.9769 14.5002 14.4999 13.9772 14.4999 13.2906V7.20986C14.4999 6.52332 13.9769 6.00024 13.2903 6.00024ZM10.2499 12.8002C11.6557 12.8002 12.7999 11.6887 12.7999 10.3483C12.7999 10.1195 12.7672 9.85794 12.7019 9.66178H13.4211V13.1272C13.4211 13.2906 13.2903 13.4541 13.0942 13.4541H7.40571C7.24225 13.4541 7.07879 13.3233 7.07879 13.1272V9.62909H7.83071C7.76533 9.85794 7.73263 10.0868 7.73263 10.3156C7.69994 11.6887 8.84417 12.8002 10.2499 12.8002ZM10.2499 11.8195C9.33455 11.8195 8.61532 11.1002 8.61532 10.2176C8.61532 9.33486 9.33455 8.61563 10.2499 8.61563C11.1653 8.61563 11.8846 9.33486 11.8846 10.2176C11.8846 11.1329 11.1653 11.8195 10.2499 11.8195ZM13.3884 8.3214C13.3884 8.51755 13.2249 8.68101 13.0288 8.68101H12.1134C11.9172 8.68101 11.7538 8.51755 11.7538 8.3214V7.43871C11.7538 7.24255 11.9172 7.07909 12.1134 7.07909H13.0288C13.2249 7.07909 13.3884 7.24255 13.3884 7.43871V8.3214Z" fill="white"/>
<defs>
<linearGradient id="paint0_linear" x1="4.25" y1="17.75" x2="17.5" y2="4" gradientUnits="userSpaceOnUse">
<stop stop-color="#EEA054"/>
<stop offset="0.502762" stop-color="#D64763"/>
<stop offset="1" stop-color="#B62A99"/>
</linearGradient>
</defs>
</svg>
