<svg width="42" height="42" viewBox="0 0 42 42" fill="none" xmlns="http://www.w3.org/2000/svg">
<path d="M35.28 8.74992C33.4249 6.89004 30.9659 5.75487 28.3471 5.54947C25.7283 5.34407 23.1223 6.08199 21 7.62992C18.7734 5.97379 16.002 5.22282 13.2439 5.52824C10.4857 5.83366 7.94577 7.17278 6.13546 9.27595C4.32514 11.3791 3.37894 14.0901 3.4874 16.8629C3.59587 19.6358 4.75093 22.2646 6.72 24.2199L17.5875 35.1049C18.4975 36.0005 19.7232 36.5025 21 36.5025C22.2768 36.5025 23.5025 36.0005 24.4125 35.1049L35.28 24.2199C37.3233 22.1641 38.4701 19.3834 38.4701 16.4849C38.4701 13.5864 37.3233 10.8057 35.28 8.74992ZM32.8125 21.8049L21.945 32.6724C21.8213 32.7973 21.6742 32.8964 21.5119 32.9641C21.3497 33.0317 21.1757 33.0665 21 33.0665C20.8243 33.0665 20.6503 33.0317 20.4881 32.9641C20.3259 32.8964 20.1787 32.7973 20.055 32.6724L9.1875 21.7524C7.81508 20.3495 7.04657 18.465 7.04657 16.5024C7.04657 14.5399 7.81508 12.6553 9.1875 11.2524C10.586 9.87165 12.4722 9.09742 14.4375 9.09742C16.4028 9.09742 18.289 9.87165 19.6875 11.2524C19.8502 11.4164 20.0437 11.5466 20.257 11.6355C20.4702 11.7243 20.699 11.7701 20.93 11.7701C21.161 11.7701 21.3898 11.7243 21.603 11.6355C21.8163 11.5466 22.0098 11.4164 22.1725 11.2524C23.571 9.87165 25.4572 9.09742 27.4225 9.09742C29.3878 9.09742 31.274 9.87165 32.6725 11.2524C34.0638 12.6369 34.8575 14.5113 34.8837 16.4739C34.9099 18.4365 34.1664 20.3313 32.8125 21.7524V21.8049Z" fill="#3F8CFF"/>
</svg>
