<svg width="16" height="16" viewBox="0 0 16 16" fill="none" xmlns="http://www.w3.org/2000/svg">
<path d="M12.94 8.66659C12.7933 8.66659 12.64 8.61992 12.4933 8.58659C12.1966 8.52022 11.9047 8.43335 11.62 8.32659C11.3107 8.21407 10.9708 8.21991 10.6655 8.34299C10.3603 8.46606 10.1114 8.69768 9.96666 8.99325L9.81999 9.29992C9.17254 8.93272 8.57441 8.48468 8.03999 7.96659C7.52189 7.43217 7.07386 6.83404 6.70666 6.18659L7.01333 6.04659C7.3089 5.90186 7.54051 5.65294 7.66359 5.34771C7.78666 5.04249 7.79251 4.70253 7.67999 4.39325C7.57412 4.10594 7.48726 3.81197 7.41999 3.51325C7.38666 3.36659 7.35999 3.21325 7.33999 3.06659C7.25904 2.597 7.01308 2.17175 6.64641 1.86741C6.27974 1.56308 5.81646 1.39966 5.33999 1.40659H3.33333C3.05149 1.40622 2.77276 1.46542 2.5154 1.58031C2.25805 1.6952 2.02788 1.86318 1.83999 2.07325C1.64821 2.28902 1.5054 2.54375 1.42139 2.81994C1.33739 3.09613 1.31417 3.38724 1.35333 3.67325C1.71572 6.44801 2.98347 9.02569 4.95999 11.0066C6.94089 12.9831 9.51857 14.2509 12.2933 14.6133C12.3799 14.6199 12.4668 14.6199 12.5533 14.6133C13.0449 14.614 13.5196 14.4336 13.8867 14.1066C14.0967 13.9187 14.2647 13.6885 14.3796 13.4312C14.4945 13.1738 14.5537 12.8951 14.5533 12.6133V10.6133C14.5497 10.1526 14.3872 9.70733 14.0933 9.35265C13.7993 8.99797 13.392 8.75563 12.94 8.66659ZM13.2667 12.6666C13.2664 12.7596 13.2468 12.8516 13.2089 12.9365C13.171 13.0215 13.1157 13.0976 13.0467 13.1599C12.9736 13.2265 12.8866 13.276 12.7921 13.3048C12.6975 13.3336 12.5978 13.3411 12.5 13.3266C10.0122 13.0017 7.70016 11.8679 5.91999 10.0999C4.13831 8.31823 2.99468 5.99816 2.66666 3.49992C2.65218 3.40214 2.65962 3.30237 2.68844 3.20782C2.71727 3.11327 2.76676 3.02632 2.83333 2.95325C2.89641 2.88335 2.97358 2.82761 3.05976 2.78969C3.14594 2.75177 3.23917 2.73254 3.33333 2.73325H5.33333C5.48743 2.72949 5.63808 2.77924 5.75964 2.87405C5.88119 2.96886 5.96612 3.10286 5.99999 3.25325C5.99999 3.43325 6.05999 3.61992 6.09999 3.79992C6.17704 4.14916 6.27954 4.4923 6.40666 4.82659L5.47333 5.26659C5.3129 5.34023 5.18823 5.47449 5.12666 5.63992C5.05998 5.80223 5.05998 5.98428 5.12666 6.14659C6.08613 8.20176 7.73816 9.85378 9.79333 10.8133C9.95563 10.8799 10.1377 10.8799 10.3 10.8133C10.4654 10.7517 10.5997 10.627 10.6733 10.4666L11.0933 9.53325C11.4373 9.65867 11.7891 9.76111 12.1467 9.83992C12.32 9.87992 12.5067 9.91325 12.6867 9.93992C12.837 9.97379 12.9711 10.0587 13.0659 10.1803C13.1607 10.3018 13.2104 10.4525 13.2067 10.6066L13.2667 12.6666ZM9.33333 1.33325C9.17999 1.33325 9.01999 1.33325 8.86666 1.33325C8.68985 1.34828 8.52625 1.43293 8.41185 1.56858C8.29745 1.70423 8.24163 1.87977 8.25666 2.05659C8.27169 2.2334 8.35634 2.397 8.49199 2.51139C8.62764 2.62579 8.80318 2.68161 8.97999 2.66659H9.33333C10.3942 2.66659 11.4116 3.08801 12.1618 3.83816C12.9119 4.5883 13.3333 5.60572 13.3333 6.66659C13.3333 6.78659 13.3333 6.89992 13.3333 7.01992C13.3185 7.19579 13.3741 7.37035 13.4878 7.50532C13.6016 7.64029 13.7642 7.72465 13.94 7.73992H13.9933C14.1602 7.7406 14.3213 7.67865 14.4447 7.56633C14.5682 7.454 14.645 7.29947 14.66 7.13325C14.66 6.97992 14.66 6.81992 14.66 6.66659C14.66 5.25325 14.099 3.89771 13.1003 2.8977C12.1015 1.8977 10.7467 1.33502 9.33333 1.33325ZM10.6667 6.66659C10.6667 6.8434 10.7369 7.01297 10.8619 7.13799C10.9869 7.26301 11.1565 7.33325 11.3333 7.33325C11.5101 7.33325 11.6797 7.26301 11.8047 7.13799C11.9298 7.01297 12 6.8434 12 6.66659C12 5.95934 11.719 5.28106 11.2189 4.78097C10.7188 4.28087 10.0406 3.99992 9.33333 3.99992C9.15651 3.99992 8.98695 4.07016 8.86192 4.19518C8.7369 4.32021 8.66666 4.48977 8.66666 4.66659C8.66666 4.8434 8.7369 5.01297 8.86192 5.13799C8.98695 5.26301 9.15651 5.33325 9.33333 5.33325C9.68695 5.33325 10.0261 5.47373 10.2761 5.72378C10.5262 5.97383 10.6667 6.31296 10.6667 6.66659Z" fill="#EB2F06"/>
</svg>
