<svg width="22" height="22" viewBox="0 0 22 22" fill="none" xmlns="http://www.w3.org/2000/svg">
<g clip-path="url(#clip0)">
<path d="M16.0402 13.1826C15.7672 13.0461 14.4209 12.386 14.17 12.2958C13.9191 12.2045 13.7367 12.1594 13.5544 12.4322C13.372 12.704 12.847 13.319 12.6867 13.5005C12.5275 13.6821 12.3673 13.7041 12.0943 13.5677C11.2874 13.2479 10.5428 12.7907 9.89359 12.2166C9.29487 11.6657 8.78158 11.0294 8.37048 10.3286C8.21132 10.0557 8.3539 9.90826 8.49096 9.77293C8.61365 9.6508 8.76507 9.45496 8.90103 9.29542C9.01363 9.15769 9.10593 9.00469 9.17514 8.84102C9.21156 8.76581 9.22852 8.68273 9.22446 8.59934C9.22041 8.51594 9.19548 8.43488 9.15193 8.36352C9.0834 8.22709 8.53627 6.8859 8.30858 6.34018C8.08642 5.80986 7.86093 5.88137 7.69182 5.87257C7.53266 5.86487 7.35028 5.86267 7.16791 5.86267C7.02917 5.86652 6.89274 5.89891 6.7672 5.9578C6.64165 6.01669 6.52971 6.1008 6.4384 6.20485C6.12895 6.49656 5.88392 6.84923 5.71893 7.2404C5.55394 7.63157 5.4726 8.05266 5.4801 8.47684C5.56886 9.50473 5.95724 10.4844 6.59757 11.2957C7.77131 13.0473 9.38253 14.465 11.273 15.4095C11.783 15.6275 12.3039 15.8192 12.8337 15.9838C13.3923 16.1526 13.9827 16.1891 14.558 16.0905C14.939 16.0137 15.2998 15.859 15.6177 15.6363C15.9356 15.4136 16.2037 15.1277 16.4049 14.7966C16.5845 14.3895 16.6398 13.9388 16.5641 13.5005C16.4967 13.3861 16.3143 13.319 16.0402 13.1826ZM18.7946 3.19349C16.9155 1.32346 14.4178 0.196881 11.7664 0.0234775C9.11503 -0.149926 6.49069 0.641668 4.38197 2.25089C2.27324 3.8601 0.823849 6.17728 0.303621 8.77101C-0.216607 11.3647 0.227784 14.0583 1.55406 16.3502L0 21.9999L5.80728 20.4849C7.41346 21.3554 9.21315 21.8116 11.042 21.8118H11.0464C13.2129 21.8107 15.3305 21.1704 17.1316 19.9718C18.9327 18.7733 20.3365 17.0702 21.1656 15.0778C21.9948 13.0854 22.2121 10.8931 21.7901 8.77785C21.3681 6.66258 20.3257 4.7193 18.7946 3.19349ZM15.8843 18.5847C14.4343 19.4895 12.7577 19.9695 11.0464 19.9699H11.042C9.41157 19.9699 7.81118 19.5332 6.40856 18.7058L6.07586 18.5099L2.62952 19.4099L3.54914 16.0652L3.3336 15.7219C2.37701 14.2034 1.89425 12.4366 1.94637 10.645C1.99849 8.85342 2.58315 7.11743 3.62642 5.65656C4.66969 4.1957 6.12471 3.07559 7.80749 2.43786C9.49027 1.80013 11.3252 1.67342 13.0804 2.07377C14.8355 2.47411 16.4319 3.38352 17.6678 4.68701C18.9037 5.99049 19.7236 7.62951 20.0237 9.3968C20.3239 11.1641 20.0908 12.9803 19.354 14.6157C18.6172 16.2512 17.4097 17.6324 15.8843 18.5847Z" fill="#18191F"/>
</g>
<defs>
<clipPath id="clip0">
<rect width="22" height="22" fill="white"/>
</clipPath>
</defs>
</svg>
