<svg width="20" height="20" viewBox="0 0 20 20" fill="none" xmlns="http://www.w3.org/2000/svg">
<circle cx="10" cy="10" r="10" fill="#4680C2"/>
<path d="M14.9031 12.5576C14.9031 12.5161 14.8616 12.5161 14.8616 12.4746C14.6956 12.1425 14.322 11.7274 13.8238 11.2708C13.5748 11.0632 13.4502 10.8972 13.3672 10.8141C13.2427 10.6481 13.2427 10.5236 13.2842 10.3575C13.3257 10.233 13.4917 10.0254 13.7823 9.65182C13.9484 9.44427 14.0314 9.31974 14.1559 9.1952C14.7786 8.36497 15.0692 7.82532 14.9861 7.57625L14.9446 7.53474C14.9031 7.49323 14.8616 7.45172 14.7786 7.45172C14.6956 7.41021 14.571 7.41021 14.4465 7.45172H12.8691C12.8276 7.45172 12.8276 7.45172 12.7445 7.45172C12.703 7.45172 12.6615 7.45172 12.6615 7.45172H12.62H12.5785L12.537 7.49323C12.4955 7.53474 12.4955 7.53474 12.4955 7.57625C12.3294 8.03288 12.1219 8.40648 11.9143 8.8216C11.7898 9.02915 11.6652 9.23671 11.5407 9.40276C11.4162 9.56881 11.3331 9.69334 11.2501 9.77636C11.1671 9.85938 11.0841 9.90089 11.0426 9.98392C11.001 10.0254 10.918 10.0669 10.918 10.0254C10.8765 10.0254 10.835 10.0254 10.835 9.98392C10.7935 9.94241 10.752 9.90089 10.7105 9.85938C10.669 9.81787 10.669 9.73485 10.6274 9.65182C10.6274 9.5688 10.6274 9.48578 10.6274 9.44427C10.6274 9.40276 10.6274 9.27823 10.6274 9.1952C10.6274 9.07067 10.6274 8.98764 10.6274 8.94613C10.6274 8.8216 10.6274 8.65555 10.6274 8.48951C10.6274 8.32346 10.6274 8.19892 10.6274 8.1159C10.6274 8.03288 10.6274 7.90835 10.6274 7.82532C10.6274 7.70079 10.6274 7.61776 10.6274 7.57625C10.6274 7.53474 10.5859 7.45172 10.5859 7.41021C10.5444 7.3687 10.5029 7.32718 10.4614 7.28567C10.4199 7.24416 10.3369 7.24416 10.2954 7.20265C10.0878 7.16114 9.83873 7.11963 9.54815 7.11963C8.88397 7.11963 8.42734 7.16114 8.2613 7.24416C8.17827 7.28568 8.09525 7.32718 8.05374 7.41021C7.97072 7.49323 7.97071 7.53474 8.01223 7.53474C8.21978 7.57626 8.38583 7.65927 8.46885 7.78381L8.51037 7.86684C8.55188 7.90835 8.55187 7.99137 8.59338 8.1159C8.63489 8.24044 8.6349 8.36497 8.6349 8.53102C8.6349 8.78009 8.6349 9.02916 8.6349 9.1952C8.6349 9.40276 8.59338 9.52729 8.59338 9.65182C8.59338 9.77636 8.55188 9.85938 8.51037 9.9009C8.46886 9.98392 8.46885 10.0254 8.42734 10.0254C8.42734 10.0254 8.42734 10.0669 8.38583 10.0669C8.34431 10.0669 8.30281 10.1085 8.21978 10.1085C8.17827 10.1085 8.09525 10.0669 8.05374 10.0254C7.97072 9.98392 7.88769 9.9009 7.84618 9.81787C7.76316 9.73485 7.68013 9.61031 7.59711 9.44427C7.51409 9.27822 7.38955 9.11218 7.30653 8.86311L7.22351 8.69707C7.182 8.61404 7.09898 8.44799 7.01595 8.24044C6.93293 8.03288 6.8499 7.86684 6.76688 7.65928C6.72537 7.57626 6.68386 7.53474 6.64235 7.49323H6.60084C6.60084 7.49323 6.55932 7.45172 6.51781 7.45172C6.4763 7.45172 6.43479 7.41021 6.39328 7.41021H4.89887C4.73282 7.41021 4.6498 7.45172 4.60829 7.49323L4.56677 7.53474C4.56677 7.53474 4.56677 7.57625 4.56677 7.61777C4.56677 7.65928 4.56677 7.70079 4.60829 7.78381C4.81584 8.28195 5.06491 8.78009 5.31398 9.27822C5.56305 9.73485 5.81212 10.15 5.97817 10.4405C6.18572 10.7311 6.35177 11.0217 6.55932 11.2708C6.76688 11.5198 6.89141 11.6859 6.93292 11.7689C7.01595 11.8519 7.05746 11.8934 7.09897 11.935L7.22351 12.0595C7.30653 12.1425 7.43106 12.267 7.59711 12.3916C7.76316 12.5161 7.97071 12.6407 8.17827 12.7652C8.38583 12.8897 8.6349 12.9727 8.88397 13.0558C9.17455 13.1388 9.42361 13.1803 9.67268 13.1388H10.2954C10.4199 13.1388 10.5029 13.0973 10.5859 13.0143L10.6274 12.9727C10.6274 12.9312 10.669 12.9312 10.669 12.8897C10.669 12.8482 10.669 12.8067 10.669 12.7237C10.669 12.5576 10.669 12.4331 10.7105 12.3086C10.752 12.184 10.752 12.101 10.7935 12.018C10.835 11.935 10.8765 11.8934 10.918 11.8519C10.9595 11.8104 11.0011 11.7689 11.0011 11.7689H11.0426C11.1256 11.7274 11.2501 11.7689 11.3331 11.8519C11.4577 11.935 11.5822 12.0595 11.6652 12.184C11.7483 12.3086 11.8728 12.4331 12.0388 12.5991C12.2049 12.7652 12.3294 12.8897 12.4124 12.9312L12.537 13.0143C12.62 13.0558 12.703 13.0973 12.8276 13.1388C12.9521 13.1803 13.0351 13.1803 13.1181 13.1803L14.5295 13.1388C14.6541 13.1388 14.7786 13.0973 14.8616 13.0558C14.9446 13.0143 14.9861 12.9727 14.9861 12.8897C14.9861 12.8482 14.9861 12.7652 14.9861 12.7237C14.9031 12.6407 14.9031 12.5991 14.9031 12.5576Z" fill="white"/>
</svg>
