<svg width="20" height="20" viewBox="0 0 20 20" fill="none" xmlns="http://www.w3.org/2000/svg">
<path d="M10 20C15.5228 20 20 15.5228 20 10C20 4.47715 15.5228 0 10 0C4.47715 0 0 4.47715 0 10C0 15.5228 4.47715 20 10 20Z" fill="#25D366"/>
<path fill-rule="evenodd" clip-rule="evenodd" d="M10.3296 15.5634H10.3271C9.33194 15.563 8.35406 15.3133 7.48554 14.8396L4.33331 15.6665L5.1769 12.5852C4.65654 11.6834 4.38272 10.6605 4.38317 9.61244C4.38447 6.33388 7.05199 3.6665 10.3295 3.6665C11.9202 3.66719 13.4132 4.28645 14.5359 5.41043C15.6586 6.53435 16.2765 8.02831 16.2759 9.61713C16.2746 12.8949 13.6081 15.562 10.3296 15.5634ZM7.63158 13.7631L7.81205 13.8702C8.57088 14.3205 9.44072 14.5588 10.3276 14.5591H10.3296C13.0537 14.5591 15.2708 12.3419 15.2719 9.61675C15.2724 8.29614 14.7588 7.05442 13.8257 6.12021C12.8925 5.18601 11.6516 4.67127 10.3315 4.67082C7.60535 4.67082 5.38821 6.88776 5.38713 9.61275C5.38674 10.5466 5.64804 11.4561 6.14278 12.243L6.26029 12.43L5.761 14.2538L7.63158 13.7631ZM13.1219 10.8974C13.2255 10.9475 13.2955 10.9813 13.3254 11.0312C13.3625 11.0931 13.3625 11.3906 13.2388 11.7377C13.1149 12.0848 12.5213 12.4016 12.2359 12.4442C11.9799 12.4825 11.656 12.4984 11.3001 12.3853C11.0843 12.3169 10.8075 12.2254 10.453 12.0723C9.06014 11.4709 8.11884 10.1209 7.94093 9.86574C7.92847 9.84786 7.91975 9.83536 7.91489 9.82887L7.91369 9.82727C7.83506 9.72235 7.30821 9.0194 7.30821 8.29188C7.30821 7.60749 7.64439 7.24877 7.79914 7.08365C7.80974 7.07233 7.81949 7.06193 7.82822 7.05239C7.96441 6.90364 8.12538 6.86646 8.22443 6.86646C8.32347 6.86646 8.42262 6.86737 8.50919 6.87172C8.51987 6.87225 8.53098 6.87219 8.54247 6.87212C8.62905 6.87161 8.737 6.87098 8.84348 7.12677C8.88445 7.2252 8.94439 7.37113 9.00761 7.52503C9.13546 7.8363 9.27672 8.18021 9.30158 8.22998C9.33873 8.30435 9.36349 8.39108 9.31396 8.49029C9.30653 8.50516 9.29965 8.5192 9.29308 8.53261C9.25589 8.60855 9.22852 8.66442 9.16539 8.73813C9.14056 8.76712 9.11491 8.79836 9.08925 8.82961C9.03813 8.89186 8.98702 8.9541 8.94252 8.99844C8.86814 9.07253 8.79071 9.15291 8.87738 9.30166C8.96405 9.45041 9.26223 9.93694 9.70393 10.3309C10.1787 10.7544 10.5914 10.9334 10.8006 11.0242C10.8414 11.0419 10.8745 11.0562 10.8988 11.0684C11.0473 11.1428 11.134 11.1303 11.2206 11.0312C11.3073 10.932 11.5921 10.5973 11.6911 10.4486C11.7901 10.2999 11.8892 10.3247 12.0254 10.3742C12.1616 10.4239 12.8921 10.7833 13.0407 10.8576C13.0697 10.8722 13.0968 10.8853 13.1219 10.8974Z" fill="#FDFDFD"/>
</svg>
