<svg width="60" height="60" viewBox="0 0 60 60" fill="none" xmlns="http://www.w3.org/2000/svg">
<path d="M0 0V60H60V0H0ZM34.8353 41.326C34.825 42.1672 34.4845 42.9708 33.8872 43.5632C33.2898 44.1556 32.4836 44.4896 31.6423 44.4928H28.3184C27.482 44.4928 26.6798 44.1608 26.0884 43.5692C25.4969 42.9776 25.1647 42.1756 25.1647 41.3392V33.2519C25.1647 32.825 25.3342 32.4156 25.6361 32.1138C25.938 31.8119 26.3474 31.6423 26.7742 31.6423C27.2012 31.6423 27.6106 31.8119 27.9124 32.1138C28.2143 32.4156 28.3838 32.825 28.3838 33.2519V41.3128H31.603V25.1908H17.1036C16.6767 25.1908 16.2673 25.0212 15.9654 24.7194C15.6636 24.4176 15.494 24.0081 15.494 23.5812C15.494 23.1544 15.6636 22.745 15.9654 22.4431C16.2673 22.1412 16.6767 21.9716 17.1036 21.9716H31.6161C32.0389 21.9716 32.4575 22.0549 32.8481 22.2167C33.2386 22.3785 33.5935 22.6156 33.8924 22.9145C34.1914 23.2134 34.4285 23.5683 34.5903 23.9589C34.752 24.3495 34.8353 24.7681 34.8353 25.1908V41.326ZM42.8964 21.9847C42.4696 21.9847 42.06 21.8152 41.7584 21.5133C41.4564 21.2114 41.2868 20.802 41.2868 20.3751V18.7524H17.1036C16.6767 18.7524 16.2673 18.5829 15.9654 18.281C15.6636 17.9792 15.494 17.5698 15.494 17.1428C15.494 16.716 15.6636 16.3066 15.9654 16.0047C16.2673 15.7028 16.6767 15.5333 17.1036 15.5333H41.2736C42.1228 15.5332 42.938 15.8688 43.5408 16.4669C44.1436 17.0649 44.486 17.877 44.4928 18.7263V20.3882C44.4928 20.8128 44.3252 21.2203 44.026 21.5218C43.7272 21.8233 43.3212 21.9944 42.8964 21.9978V21.9847Z" fill="#18191F"/>
</svg>
