<svg width="48" height="48" viewBox="0 0 48 48" fill="none" xmlns="http://www.w3.org/2000/svg">
<circle cx="24" cy="24" r="24" fill="#27508E"/>
<g clip-path="url(#clip0)">
<path d="M29.0402 26.1826C28.7672 26.0461 27.4209 25.386 27.17 25.2958C26.9191 25.2045 26.7367 25.1594 26.5544 25.4322C26.372 25.704 25.847 26.319 25.6867 26.5005C25.5275 26.6821 25.3673 26.7041 25.0943 26.5677C24.2874 26.2479 23.5428 25.7907 22.8936 25.2166C22.2949 24.6657 21.7816 24.0294 21.3705 23.3286C21.2113 23.0557 21.3539 22.9083 21.491 22.7729C21.6136 22.6508 21.7651 22.455 21.901 22.2954C22.0136 22.1577 22.1059 22.0047 22.1751 21.841C22.2116 21.7658 22.2285 21.6827 22.2245 21.5993C22.2204 21.5159 22.1955 21.4349 22.1519 21.3635C22.0834 21.2271 21.5363 19.8859 21.3086 19.3402C21.0864 18.8099 20.8609 18.8814 20.6918 18.8726C20.5327 18.8649 20.3503 18.8627 20.1679 18.8627C20.0292 18.8665 19.8927 18.8989 19.7672 18.9578C19.6417 19.0167 19.5297 19.1008 19.4384 19.2048C19.1289 19.4966 18.8839 19.8492 18.7189 20.2404C18.5539 20.6316 18.4726 21.0527 18.4801 21.4768C18.5689 22.5047 18.9572 23.4844 19.5976 24.2957C20.7713 26.0473 22.3825 27.465 24.273 28.4095C24.783 28.6275 25.3039 28.8192 25.8337 28.9838C26.3923 29.1526 26.9827 29.1891 27.558 29.0905C27.939 29.0137 28.2998 28.859 28.6177 28.6363C28.9356 28.4136 29.2037 28.1277 29.4049 27.7966C29.5845 27.3895 29.6398 26.9388 29.5641 26.5005C29.4967 26.3861 29.3143 26.319 29.0402 26.1826ZM31.7946 16.1935C29.9155 14.3235 27.4178 13.1969 24.7664 13.0235C22.115 12.8501 19.4907 13.6417 17.382 15.2509C15.2732 16.8601 13.8238 19.1773 13.3036 21.771C12.7834 24.3647 13.2278 27.0583 14.5541 29.3502L13 34.9999L18.8073 33.4849C20.4135 34.3554 22.2131 34.8116 24.042 34.8118H24.0464C26.2129 34.8107 28.3305 34.1704 30.1316 32.9718C31.9327 31.7733 33.3365 30.0702 34.1656 28.0778C34.9948 26.0854 35.2121 23.8931 34.7901 21.7779C34.3681 19.6626 33.3257 17.7193 31.7946 16.1935ZM28.8843 31.5847C27.4343 32.4895 25.7577 32.9695 24.0464 32.9699H24.042C22.4116 32.9699 20.8112 32.5332 19.4086 31.7058L19.0759 31.5099L15.6295 32.4099L16.5491 29.0652L16.3336 28.7219C15.377 27.2034 14.8943 25.4366 14.9464 23.645C14.9985 21.8534 15.5832 20.1174 16.6264 18.6566C17.6697 17.1957 19.1247 16.0756 20.8075 15.4379C22.4903 14.8001 24.3252 14.6734 26.0804 15.0738C27.8355 15.4741 29.4319 16.3835 30.6678 17.687C31.9037 18.9905 32.7236 20.6295 33.0237 22.3968C33.3239 24.1641 33.0908 25.9803 32.354 27.6157C31.6172 29.2512 30.4097 30.6324 28.8843 31.5847Z" fill="white"/>
</g>
<defs>
<clipPath id="clip0">
<rect width="22" height="22" fill="white" transform="translate(13 13)"/>
</clipPath>
</defs>
</svg>
