<svg width="94" height="32" viewBox="0 0 94 32" fill="none" xmlns="http://www.w3.org/2000/svg">
<g clip-path="url(#clip0)">
<path d="M0 0V32H32V0H0ZM18.5788 22.0405C18.5734 22.4892 18.3917 22.9178 18.0732 23.2337C17.7546 23.5497 17.3246 23.7278 16.8759 23.7295H15.1032C14.6571 23.7295 14.2292 23.5524 13.9138 23.2369C13.5984 22.9214 13.4212 22.4937 13.4212 22.0476V17.7344C13.4212 17.5067 13.5116 17.2883 13.6726 17.1273C13.8336 16.9663 14.0519 16.8759 14.2796 16.8759C14.5073 16.8759 14.7256 16.9663 14.8866 17.1273C15.0476 17.2883 15.138 17.5067 15.138 17.7344V22.0335H16.855V13.4351H9.12192C8.89425 13.4351 8.67588 13.3447 8.5149 13.1837C8.35392 13.0227 8.26347 12.8043 8.26347 12.5767C8.26347 12.349 8.35392 12.1306 8.5149 11.9696C8.67588 11.8087 8.89425 11.7182 9.12192 11.7182H16.8619C17.0874 11.7182 17.3107 11.7626 17.519 11.8489C17.7273 11.9352 17.9165 12.0617 18.076 12.2211C18.2354 12.3805 18.3619 12.5698 18.4482 12.7781C18.5344 12.9864 18.5788 13.2096 18.5788 13.4351V22.0405ZM22.8781 11.7252C22.6505 11.7252 22.432 11.6348 22.2711 11.4737C22.1101 11.3128 22.0196 11.0944 22.0196 10.8667V10.0013H9.12192C8.89425 10.0013 8.67588 9.91087 8.5149 9.74987C8.35392 9.58889 8.26347 9.37054 8.26347 9.14285C8.26347 8.91518 8.35392 8.69683 8.5149 8.53585C8.67588 8.37485 8.89425 8.28442 9.12192 8.28442H22.0126C22.4655 8.2844 22.9003 8.46336 23.2218 8.78234C23.5433 9.10129 23.7259 9.53442 23.7295 9.98735V10.8737C23.7295 11.1002 23.6401 11.3175 23.4805 11.4783C23.3212 11.6391 23.1046 11.7303 22.8781 11.7322V11.7252Z" fill="white"/>
<path d="M42.3573 1.72395H39.9776V0.139648H46.4474V1.72395H44.0742V7.94249H42.3573V1.72395Z" fill="white"/>
<path d="M47.3051 4.04105C47.283 3.21643 47.5074 2.40391 47.9494 1.70747C48.3917 1.01103 49.0314 0.46232 49.7871 0.131549C50.5429 -0.19922 51.38 -0.297015 52.1915 -0.149321C53.0033 -0.00162725 53.7523 0.384837 54.343 0.960632C54.9337 1.53643 55.3393 2.27537 55.5078 3.08293C55.6761 3.89048 55.6 4.7299 55.2885 5.49385C54.9773 6.25777 54.4452 6.91147 53.7602 7.37131C53.0754 7.83113 52.2688 8.07616 51.444 8.07508C50.9054 8.08905 50.3697 7.99503 49.8679 7.79857C49.3664 7.60212 48.9092 7.30718 48.5235 6.9312C48.1378 6.5552 47.8312 6.10575 47.6219 5.60937C47.4127 5.11298 47.3051 4.57974 47.3051 4.04105ZM53.8029 4.04105C53.8142 3.72303 53.7613 3.40602 53.6476 3.10885C53.5338 2.81167 53.3615 2.54042 53.1407 2.31121C52.9199 2.08202 52.6553 1.89956 52.3626 1.77468C52.0699 1.64981 51.7551 1.58508 51.437 1.58434C51.1202 1.58398 50.8068 1.64795 50.5156 1.77237C50.2244 1.89679 49.9616 2.07907 49.7429 2.30814C49.5242 2.53722 49.3544 2.80832 49.2437 3.10501C49.133 3.40169 49.0837 3.71776 49.0989 4.03407C49.0878 4.35149 49.1402 4.66795 49.2537 4.96465C49.367 5.26136 49.5388 5.53229 49.7587 5.76141C49.9786 5.99051 50.2425 6.17312 50.5344 6.29841C50.8262 6.42368 51.1402 6.48911 51.4579 6.49078C51.7751 6.49208 52.0894 6.42882 52.3814 6.30481C52.6735 6.18082 52.9372 5.99868 53.1565 5.76952C53.376 5.54033 53.5464 5.26891 53.6574 4.97176C53.7685 4.67461 53.818 4.35793 53.8029 4.04105Z" fill="white"/>
<path d="M57.3487 0.139648H60.5382C62.3947 0.139648 63.5115 1.24238 63.5115 2.85459C63.5115 4.66223 62.1156 5.58349 60.3637 5.58349H59.0656V7.92154H57.3487V0.139648ZM60.4267 4.07597C60.5967 4.09666 60.7695 4.08109 60.9331 4.03027C61.0967 3.97948 61.248 3.89457 61.3764 3.78119C61.5051 3.6678 61.6081 3.52847 61.6789 3.37237C61.7498 3.21628 61.7869 3.04696 61.7875 2.87552C61.7875 2.1078 61.2501 1.69603 60.3917 1.69603H59.0656V4.07597H60.4267Z" fill="white"/>
<path d="M39.6284 18.8444L40.6404 17.63C41.2768 18.218 42.1052 18.5553 42.9713 18.5791C43.6693 18.5791 44.0951 18.3 44.0951 17.8184C44.0951 17.3368 43.8297 17.1624 42.5248 16.8273C40.9544 16.4225 39.9353 15.9898 39.9353 14.4195C39.9353 13.0236 41.0731 12.0675 42.6643 12.0675C43.7156 12.0505 44.74 12.401 45.5607 13.0585L44.6673 14.3637C44.0834 13.9084 43.3753 13.6408 42.6364 13.5959C41.9804 13.5959 41.6313 13.896 41.6313 14.2939C41.6313 14.8103 41.9663 14.9918 43.3135 15.3198C44.8977 15.7316 45.7909 16.3039 45.7909 17.6858C45.7909 19.2352 44.6116 20.1076 42.9295 20.1076C41.7113 20.106 40.5363 19.6563 39.6284 18.8444Z" fill="white"/>
<path d="M49.1693 13.7701H46.7961V12.1858H53.2591V13.7701H50.8862V19.9886H49.1693V13.7701Z" fill="white"/>
<path d="M54.7947 12.186H58.361C58.7736 12.1597 59.1874 12.216 59.578 12.3514C59.9687 12.4868 60.3283 12.6986 60.6362 12.9746C60.8685 13.2134 61.0498 13.4965 61.1697 13.8072C61.2898 14.1178 61.3457 14.4495 61.3342 14.7822C61.36 15.3139 61.2098 15.8392 60.9071 16.277C60.6042 16.7147 60.1658 17.0406 59.6591 17.2041L61.5644 19.9958H59.5334L57.8377 17.4972H56.5325V19.9958H54.7947V12.186ZM58.2842 15.9757C59.1217 15.9757 59.5964 15.529 59.5964 14.8521C59.5964 14.1751 59.0869 13.7354 58.2494 13.7354H56.5325V15.9757H58.2842Z" fill="white"/>
<path d="M63.0789 12.1858H68.9624V13.7143H64.7817V15.2986H68.4598V16.827H64.7817V18.4602H69.0181V19.9886H63.0789V12.1858Z" fill="white"/>
<path d="M72.5845 13.7701H70.2116V12.1858H76.6745V13.7701H74.3014V19.9886H72.5845V13.7701Z" fill="white"/>
<path d="M77.5328 16.0875C77.5232 15.5521 77.6222 15.0203 77.8236 14.5243C78.0252 14.0282 78.3251 13.5781 78.7053 13.2011C79.0856 12.8241 79.5383 12.5281 80.0361 12.3308C80.534 12.1336 81.0664 12.0392 81.6017 12.0534C82.1672 12.0346 82.7302 12.1384 83.2518 12.3577C83.7734 12.577 84.2415 12.9065 84.6238 13.3237L83.5979 14.5032C83.3423 14.2254 83.0315 14.0042 82.6852 13.854C82.339 13.7037 81.9652 13.6277 81.5878 13.6308C81.2768 13.6377 80.9702 13.7073 80.6867 13.8353C80.403 13.9632 80.1483 14.147 79.9371 14.3756C79.7261 14.6042 79.5633 14.873 79.4583 15.1659C79.3534 15.4588 79.3086 15.7699 79.3265 16.0805C79.3086 16.3911 79.3534 16.7021 79.4583 16.995C79.5633 17.2879 79.7261 17.5567 79.9371 17.7853C80.1483 18.0139 80.403 18.1977 80.6867 18.3257C80.9702 18.4537 81.2768 18.5232 81.5878 18.5302C81.9744 18.5282 82.3565 18.4459 82.7098 18.2885C83.063 18.1312 83.3796 17.9021 83.6397 17.6159L84.7285 18.7884C84.1611 19.3789 83.4332 19.79 82.6344 19.971C81.8359 20.152 81.0018 20.0949 80.2353 19.8067C79.4688 19.5185 78.8036 19.012 78.3221 18.3497C77.8404 17.6874 77.5637 16.8985 77.5258 16.0805L77.5328 16.0875Z" fill="white"/>
<path d="M86.3266 12.1858H88.0435V15.2776H91.2121V12.1858H92.929V19.9886H91.2121V16.8549H88.0435V19.9886H86.3266V12.1858Z" fill="white"/>
<path d="M74.5948 24.0576H72.8779V31.8605H74.5948V24.0576Z" fill="white"/>
<path d="M76.765 24.0576H78.3492L82.0064 28.8664V24.0576H83.7024V31.8605H82.2368L78.461 26.9052V31.8605H76.765V24.0576Z" fill="white"/>
<path d="M85.4475 27.9591C85.4436 27.4234 85.5471 26.8926 85.7521 26.3977C85.9569 25.903 86.259 25.4541 86.6402 25.078C87.0214 24.7019 87.4743 24.4062 87.972 24.208C88.4695 24.01 89.0018 23.9138 89.5373 23.9249C90.659 23.8656 91.7594 24.249 92.6012 24.9929L91.5194 26.2978C90.9704 25.7771 90.2381 25.4938 89.4814 25.5094C88.8593 25.5693 88.2831 25.8629 87.8688 26.3309C87.4545 26.799 87.2331 27.4067 87.2491 28.0314C87.2648 28.6562 87.517 29.2519 87.9546 29.6982C88.3923 30.1445 88.9826 30.4083 89.607 30.4367C90.1826 30.4546 90.749 30.291 91.2262 29.9691V28.8523H89.4955V27.3728H92.8872V30.7646C91.9616 31.5667 90.7761 32.0056 89.5511 32C89.0103 32.0273 88.4698 31.9422 87.9637 31.7496C87.4575 31.5571 86.9969 31.2615 86.6112 30.8815C86.2253 30.5016 85.9226 30.0457 85.7222 29.5424C85.5219 29.0394 85.4283 28.5001 85.4475 27.9591Z" fill="white"/>
<path d="M92.2454 4.18761H68.153C67.9678 4.18761 67.7903 4.11407 67.6595 3.98319C67.5286 3.85231 67.455 3.67478 67.455 3.48969C67.455 3.30458 67.5286 3.12707 67.6595 2.99616C67.7903 2.86528 67.9678 2.79175 68.153 2.79175H92.2385C92.4235 2.79175 92.601 2.86528 92.732 2.99616C92.863 3.12707 92.9363 3.30458 92.9363 3.48969C92.9363 3.67478 92.863 3.85231 92.732 3.98319C92.601 4.11407 92.4235 4.18761 92.2385 4.18761H92.2454Z" fill="white"/>
<path d="M68.0412 28.6151H40.7243C40.5391 28.6151 40.3616 28.5417 40.2306 28.4107C40.0998 28.2799 40.0262 28.1024 40.0262 27.9173C40.0262 27.7321 40.0998 27.5546 40.2306 27.4238C40.3616 27.2928 40.5391 27.2192 40.7243 27.2192H68.0412C68.2261 27.2192 68.4036 27.2928 68.5346 27.4238C68.6654 27.5546 68.739 27.7321 68.739 27.9173C68.739 28.1024 68.6654 28.2799 68.5346 28.4107C68.4036 28.5417 68.2261 28.6151 68.0412 28.6151Z" fill="white"/>
</g>
<defs>
<clipPath id="clip0">
<rect width="93.0133" height="32" fill="white"/>
</clipPath>
</defs>
</svg>
