<svg width="140" height="48" viewBox="0 0 140 48" fill="none" xmlns="http://www.w3.org/2000/svg">
<g clip-path="url(#clip0)">
<path d="M0 0V48H48V0H0ZM27.8683 33.0608C27.86 33.7338 27.5876 34.3766 27.1097 34.8506C26.6319 35.3245 25.9869 35.5917 25.3139 35.5942H22.6548C21.9856 35.5942 21.3439 35.3286 20.8707 34.8554C20.3975 34.3821 20.1317 33.7405 20.1317 33.0714V26.6015C20.1317 26.26 20.2674 25.9325 20.5089 25.691C20.7504 25.4495 21.0779 25.3139 21.4194 25.3139C21.7609 25.3139 22.0884 25.4495 22.3299 25.691C22.5714 25.9325 22.7071 26.26 22.7071 26.6015V33.0502H25.2824V20.1527H13.6829C13.3414 20.1527 13.0138 20.017 12.7724 19.7755C12.5309 19.534 12.3952 19.2065 12.3952 18.865C12.3952 18.5235 12.5309 18.196 12.7724 17.9545C13.0138 17.713 13.3414 17.5773 13.6829 17.5773H25.2929C25.6311 17.5773 25.966 17.6439 26.2785 17.7733C26.5909 17.9028 26.8748 18.0925 27.114 18.3316C27.3531 18.5708 27.5428 18.8547 27.6722 19.1671C27.8016 19.4796 27.8683 19.8145 27.8683 20.1527V33.0608ZM34.3171 17.5878C33.9757 17.5878 33.648 17.4521 33.4067 17.2106C33.1651 16.9692 33.0294 16.6416 33.0294 16.3001V15.002H13.6829C13.3414 15.002 13.0138 14.8663 12.7724 14.6248C12.5309 14.3833 12.3952 14.0558 12.3952 13.7143C12.3952 13.3728 12.5309 13.0452 12.7724 12.8038C13.0138 12.5623 13.3414 12.4266 13.6829 12.4266H33.0189C33.6982 12.4266 34.3504 12.695 34.8326 13.1735C35.3149 13.6519 35.5888 14.3016 35.5942 14.981V16.3106C35.5942 16.6503 35.4602 16.9762 35.2208 17.2174C34.9818 17.4586 34.657 17.5955 34.3171 17.5982V17.5878Z" fill="#18191F"/>
<path d="M63.536 2.58592H59.9664V0.209473H69.6711V2.58592H66.1114V11.9137H63.536V2.58592Z" fill="#18191F"/>
<path d="M70.9578 6.06157C70.9245 4.82464 71.2611 3.60586 71.9242 2.5612C72.5875 1.51654 73.5472 0.69348 74.6806 0.197324C75.8144 -0.298831 77.0701 -0.445522 78.2874 -0.223981C79.505 -0.0024409 80.6285 0.577256 81.5146 1.44095C82.4006 2.30464 83.009 3.41306 83.2618 4.62439C83.5142 5.83572 83.4 7.09485 82.9328 8.24077C82.4659 9.38666 81.6678 10.3672 80.6403 11.057C79.6131 11.7467 78.4032 12.1142 77.1661 12.1126C76.3581 12.1336 75.5546 11.9925 74.8019 11.6979C74.0496 11.4032 73.3638 10.9608 72.7853 10.3968C72.2067 9.8328 71.7469 9.15863 71.433 8.41405C71.119 7.66948 70.9578 6.8696 70.9578 6.06157ZM80.7043 6.06157C80.7213 5.58455 80.6419 5.10903 80.4714 4.66327C80.3008 4.21751 80.0422 3.81063 79.711 3.46682C79.3798 3.12303 78.983 2.84934 78.544 2.66203C78.105 2.47472 77.6326 2.37762 77.1555 2.37652C76.6803 2.37598 76.2102 2.47193 75.7734 2.65856C75.3366 2.84519 74.9424 3.1186 74.6144 3.46221C74.2864 3.80583 74.0317 4.21248 73.8656 4.65751C73.6995 5.10253 73.6256 5.57664 73.6483 6.05111C73.6317 6.52724 73.7104 7.00192 73.8806 7.44698C74.0506 7.89204 74.3082 8.29844 74.6381 8.64212C74.968 8.98576 75.3638 9.25968 75.8016 9.44762C76.2394 9.63552 76.7104 9.73367 77.1869 9.73617C77.6627 9.73812 78.1341 9.64324 78.5722 9.45722C79.0102 9.27124 79.4058 8.99802 79.7347 8.65428C80.064 8.3105 80.3197 7.90337 80.4861 7.45764C80.6528 7.01191 80.727 6.5369 80.7043 6.06157Z" fill="#18191F"/>
<path d="M86.0231 0.209473H90.8074C93.592 0.209473 95.2672 1.86356 95.2672 4.28189C95.2672 6.99335 93.1735 8.37523 90.5456 8.37523H88.5984V11.8823H86.0231V0.209473ZM90.64 6.11395C90.8951 6.14499 91.1543 6.12163 91.3997 6.04541C91.6452 5.96922 91.872 5.84186 92.0647 5.67178C92.2576 5.5017 92.4122 5.29271 92.5184 5.05856C92.6247 4.82442 92.6804 4.57043 92.6813 4.31328C92.6813 3.16171 91.8752 2.54404 90.5876 2.54404H88.5984V6.11395H90.64Z" fill="#18191F"/>
<path d="M59.4426 28.2663L60.9606 26.4447C61.9152 27.3268 63.1578 27.8327 64.457 27.8685C65.504 27.8685 66.1427 27.4497 66.1427 26.7273C66.1427 26.005 65.7446 25.7433 63.7872 25.2408C61.4317 24.6336 59.903 23.9845 59.903 21.629C59.903 19.5352 61.6096 18.101 63.9965 18.101C65.5734 18.0755 67.1101 18.6013 68.3411 19.5875L67.001 21.5452C66.1251 20.8624 65.063 20.4609 63.9546 20.3937C62.9706 20.3937 62.447 20.8438 62.447 21.4406C62.447 22.2153 62.9494 22.4874 64.9702 22.9795C67.3466 23.5971 68.6864 24.4556 68.6864 26.5284C68.6864 28.8525 66.9174 30.1612 64.3942 30.1612C62.567 30.1587 60.8045 29.4843 59.4426 28.2663Z" fill="#18191F"/>
<path d="M73.7539 20.6553H70.1942V18.2788H79.8886V20.6553H76.3293V29.9831H73.7539V20.6553Z" fill="#18191F"/>
<path d="M82.192 18.2789H87.5414C88.1603 18.2396 88.7811 18.3239 89.3671 18.527C89.953 18.7302 90.4925 19.048 90.9542 19.4619C91.3027 19.82 91.5747 20.2448 91.7546 20.7107C91.9347 21.1767 92.0186 21.6742 92.0013 22.1734C92.04 22.9708 91.8147 23.7588 91.3607 24.4155C90.9063 25.0721 90.2487 25.5608 89.4887 25.8061L92.3466 29.9937H89.3002L86.7565 26.2458H84.7987V29.9937H82.192V18.2789ZM87.4263 23.9636C88.6826 23.9636 89.3946 23.2936 89.3946 22.2781C89.3946 21.2626 88.6304 20.603 87.3741 20.603H84.7987V23.9636H87.4263Z" fill="#18191F"/>
<path d="M94.6182 18.2788H103.444V20.5715H97.1725V22.948H102.69V25.2406H97.1725V27.6904H103.527V29.9831H94.6182V18.2788Z" fill="#18191F"/>
<path d="M108.877 20.6553H105.317V18.2788H115.012V20.6553H111.452V29.9831H108.877V20.6553Z" fill="#18191F"/>
<path d="M116.299 24.1309C116.285 23.3279 116.433 22.5302 116.735 21.7861C117.038 21.042 117.488 20.3669 118.058 19.8014C118.628 19.2359 119.308 18.7918 120.054 18.496C120.801 18.2001 121.6 18.0586 122.403 18.0799C123.251 18.0517 124.095 18.2074 124.878 18.5363C125.66 18.8652 126.362 19.3595 126.936 19.9853L125.397 21.7545C125.013 21.3378 124.547 21.0061 124.028 20.7807C123.508 20.5553 122.948 20.4412 122.382 20.4459C121.915 20.4564 121.455 20.5607 121.03 20.7526C120.604 20.9446 120.222 21.2203 119.906 21.5632C119.589 21.9061 119.345 22.3093 119.188 22.7486C119.03 23.188 118.963 23.6546 118.99 24.1205C118.963 24.5864 119.03 25.0529 119.188 25.4923C119.345 25.9316 119.589 26.3348 119.906 26.6777C120.222 27.0207 120.604 27.2963 121.03 27.4883C121.455 27.6803 121.915 27.7846 122.382 27.7951C122.962 27.7921 123.535 27.6687 124.065 27.4326C124.595 27.1965 125.069 26.8529 125.46 26.4236L127.093 28.1824C126.242 29.0681 125.15 29.6848 123.952 29.9563C122.754 30.2278 121.503 30.1421 120.353 29.7098C119.203 29.2776 118.205 28.5177 117.483 27.5243C116.761 26.5308 116.346 25.3475 116.289 24.1205L116.299 24.1309Z" fill="#18191F"/>
<path d="M129.49 18.2788H132.065V22.9165H136.818V18.2788H139.394V29.9831H136.818V25.2825H132.065V29.9831H129.49V18.2788Z" fill="#18191F"/>
<path d="M111.892 36.0864H109.317V47.7907H111.892V36.0864Z" fill="#18191F"/>
<path d="M115.148 36.0864H117.524L123.01 43.2995V36.0864H125.554V47.7907H123.355L117.692 40.3578V47.7907H115.148V36.0864Z" fill="#18191F"/>
<path d="M128.171 41.9386C128.165 41.1351 128.321 40.3389 128.628 39.5965C128.935 38.8544 129.389 38.1812 129.96 37.617C130.532 37.0528 131.212 36.6093 131.958 36.312C132.704 36.0151 133.503 35.8708 134.306 35.8874C135.989 35.7984 137.639 36.3735 138.902 37.4893L137.279 39.4468C136.456 38.6656 135.357 38.2407 134.222 38.264C133.289 38.354 132.425 38.7943 131.803 39.4964C131.182 40.1984 130.85 41.1101 130.874 42.0471C130.897 42.9844 131.276 43.8778 131.932 44.5472C132.588 45.2167 133.474 45.6125 134.411 45.6551C135.274 45.682 136.124 45.4365 136.839 44.9536V43.2784H134.243V41.0592H139.331V46.1469C137.942 47.3501 136.164 48.0084 134.327 48C133.516 48.041 132.705 47.9133 131.946 47.6244C131.186 47.3357 130.495 46.8922 129.917 46.3223C129.338 45.7524 128.884 45.0685 128.583 44.3136C128.283 43.5591 128.142 42.7501 128.171 41.9386Z" fill="#18191F"/>
<path d="M138.368 6.28154H102.229C101.952 6.28154 101.685 6.17123 101.489 5.97491C101.293 5.77859 101.182 5.51229 101.182 5.23466C101.182 4.95699 101.293 4.69072 101.489 4.49437C101.685 4.29805 101.952 4.18774 102.229 4.18774H138.358C138.635 4.18774 138.901 4.29805 139.098 4.49437C139.294 4.69072 139.404 4.95699 139.404 5.23466C139.404 5.51229 139.294 5.77859 139.098 5.97491C138.901 6.17123 138.635 6.28154 138.358 6.28154H138.368Z" fill="#18191F"/>
<path d="M102.062 42.9226H61.0864C60.8086 42.9226 60.5424 42.8125 60.3459 42.6161C60.1498 42.4199 60.0394 42.1537 60.0394 41.8759C60.0394 41.5981 60.1498 41.3319 60.3459 41.1357C60.5424 40.9393 60.8086 40.8289 61.0864 40.8289H102.062C102.339 40.8289 102.605 40.9393 102.802 41.1357C102.998 41.3319 103.108 41.5981 103.108 41.8759C103.108 42.1537 102.998 42.4199 102.802 42.6161C102.605 42.8125 102.339 42.9226 102.062 42.9226Z" fill="#18191F"/>
</g>
<defs>
<clipPath id="clip0">
<rect width="139.52" height="48" fill="white"/>
</clipPath>
</defs>
</svg>
