<svg width="88" height="88" viewBox="0 0 88 88" fill="none" xmlns="http://www.w3.org/2000/svg">
<path d="M44 86.625C67.5411 86.625 86.625 67.5411 86.625 44C86.625 20.4589 67.5411 1.375 44 1.375C20.4589 1.375 1.375 20.4589 1.375 44C1.375 67.5411 20.4589 86.625 44 86.625Z" fill="#EA4C89"/>
<path fill-rule="evenodd" clip-rule="evenodd" d="M44 0C19.7093 0 0 19.7093 0 44C0 68.2907 19.7093 88 44 88C68.2429 88 88 68.2907 88 44C88 19.7093 68.2429 0 44 0ZM73.0628 20.282C78.3123 26.6768 81.4622 34.8373 81.5576 43.6659C80.3168 43.4274 67.9088 40.898 55.4056 42.4729C55.1193 41.8525 54.8807 41.1843 54.5944 40.5163C53.8307 38.7029 52.9719 36.8418 52.1128 35.076C65.9521 29.4448 72.2516 21.3319 73.0628 20.282ZM44 6.49025C53.5444 6.49025 62.2776 10.0694 68.9111 15.9393C68.2429 16.8937 62.5639 24.4816 49.2016 29.4924C43.0455 18.1822 36.2214 8.92408 35.1714 7.4924C37.9869 6.82429 40.9459 6.49025 44 6.49025ZM28.0131 10.0217C29.0152 11.3579 35.6964 20.6638 41.948 31.7353C24.3861 36.4122 8.87637 36.3168 7.20607 36.3168C9.6399 24.6725 17.5141 14.9848 28.0131 10.0217ZM6.3948 44.0479C6.3948 43.6659 6.3948 43.2842 6.3948 42.9025C8.01735 42.9501 26.2473 43.1888 45.0021 37.5576C46.0999 39.6572 47.102 41.8047 48.0565 43.9522C47.5791 44.0954 47.0541 44.2387 46.577 44.3817C27.2017 50.6333 16.8937 67.7179 16.0347 69.1496C10.0694 62.5163 6.3948 53.6877 6.3948 44.0479ZM44 81.6051C35.3144 81.6051 27.2972 78.6464 20.9501 73.6832C21.6182 72.2994 29.2537 57.601 50.4424 50.204C50.5378 50.1562 50.5857 50.1562 50.6811 50.1086C55.9782 63.8047 58.1259 75.3057 58.6985 78.5986C54.1648 80.5552 49.2016 81.6051 44 81.6051ZM64.9501 75.1627C64.5684 72.872 62.5639 61.8959 57.6485 48.3904C69.4361 46.5292 79.7439 49.5836 81.0326 50.0131C79.4101 60.4642 73.3969 69.4837 64.9501 75.1627Z" fill="#C32361"/>
</svg>
