<svg width="88" height="88" viewBox="0 0 88 88" fill="none" xmlns="http://www.w3.org/2000/svg">
<g clip-path="url(#clip0)">
<path d="M87.142 45.0135C87.142 42.0225 86.8994 39.0154 86.3821 36.0729H44.8799V53.0165H68.6462C67.66 58.4811 64.4912 63.3152 59.8511 66.387V77.381H74.03C82.3564 69.7176 87.142 58.4003 87.142 45.0135Z" fill="#4285F4"/>
<path d="M44.8801 88.0031C56.747 88.0031 66.7548 84.1067 74.0463 77.381L59.8674 66.387C55.9225 69.0709 50.8297 70.5906 44.8962 70.5906C33.4173 70.5906 23.6844 62.8464 20.1922 52.4344H5.56055V63.7679C13.03 78.6259 28.2436 88.0031 44.8801 88.0031Z" fill="#34A853"/>
<path d="M20.1759 52.4344C18.3328 46.9698 18.3328 41.0525 20.1759 35.5878V24.2544H5.56039C-0.680286 36.6872 -0.680286 51.335 5.56039 63.7679L20.1759 52.4344Z" fill="#FBBC04"/>
<path d="M44.88 17.4154C51.1531 17.3184 57.2159 19.6789 61.759 24.0118L74.3212 11.4496C66.3667 3.98018 55.8093 -0.126375 44.88 0.00296511C28.2436 0.00296511 13.03 9.38015 5.56055 24.2543L20.176 35.5878C23.652 25.1597 33.4011 17.4154 44.88 17.4154Z" fill="#EA4335"/>
</g>
<defs>
<clipPath id="clip0">
<rect width="88" height="88" fill="white"/>
</clipPath>
</defs>
</svg>
