<svg width="88" height="88" viewBox="0 0 88 88" fill="none" xmlns="http://www.w3.org/2000/svg">
<path d="M44 88C68.3005 88 88 68.3005 88 44C88 19.6995 68.3005 0 44 0C19.6995 0 0 19.6995 0 44C0 68.3005 19.6995 88 44 88Z" fill="url(#paint0_linear)"/>
<path fill-rule="evenodd" clip-rule="evenodd" d="M19.9167 43.5356C32.7436 37.9471 41.2969 34.2628 45.5766 32.4828C57.7958 27.4004 60.3349 26.5175 61.9898 26.4883C62.3538 26.4819 63.1676 26.5721 63.6948 26.9999C64.1399 27.3611 64.2624 27.849 64.321 28.1915C64.3796 28.5339 64.4526 29.3141 64.3946 29.9236C63.7324 36.881 60.8673 53.7649 59.4096 61.5573C58.7928 64.8546 57.5784 65.9602 56.4026 66.0684C53.8475 66.3035 51.9072 64.3797 49.4324 62.7575C45.5598 60.219 43.3721 58.6387 39.613 56.1616C35.2689 53.2989 38.085 51.7254 40.5608 49.154C41.2087 48.4811 52.4668 38.241 52.6847 37.3121C52.7119 37.1959 52.7372 36.7628 52.4799 36.5341C52.2227 36.3055 51.843 36.3837 51.5689 36.4459C51.1805 36.534 44.994 40.623 33.0095 48.713C31.2535 49.9188 29.6629 50.5063 28.2379 50.4755C26.6668 50.4415 23.6448 49.5872 21.3982 48.8569C18.6427 47.9612 16.4527 47.4877 16.6434 45.9665C16.7427 45.1742 17.8338 44.3639 19.9167 43.5356Z" fill="white"/>
<defs>
<linearGradient id="paint0_linear" x1="44" y1="0" x2="44" y2="87.3473" gradientUnits="userSpaceOnUse">
<stop stop-color="#2AABEE"/>
<stop offset="1" stop-color="#229ED9"/>
</linearGradient>
</defs>
</svg>
