<svg width="160" height="160" viewBox="0 0 160 160" fill="none" xmlns="http://www.w3.org/2000/svg">
<path d="M151.92 154.67V56.0547C151.92 54.5828 150.727 53.3894 149.255 53.3894H122.602C121.13 53.3894 119.937 54.5828 119.937 56.0547V154.67H114.607V93.3684C114.607 91.8965 113.413 90.7032 111.941 90.7032H85.2886C83.8167 90.7032 82.6233 91.8965 82.6233 93.3684V154.67H77.2928V66.7157C77.2928 65.2438 76.0994 64.0505 74.6275 64.0505H47.9748C46.5029 64.0505 45.3096 65.2438 45.3096 66.7157V154.67H39.979V104.029C39.979 102.558 38.7856 101.364 37.3137 101.364H10.6611C9.18918 101.364 7.9958 102.558 7.9958 104.029V154.67H0V160H159.916V154.67H151.92ZM34.6485 154.67H13.3263V106.695H34.6485V154.67ZM71.9622 154.67H50.6401V69.381H71.9622V154.67ZM109.276 154.67H87.9538V96.0337H109.276V154.67ZM146.59 154.67H125.268V58.7199H146.59V154.67Z" fill="#FFB700"/>
<path d="M16.6376 72.5019C18.8178 73.9432 21.3738 74.7118 23.9874 74.7114C31.3472 74.7111 37.3134 68.7446 37.3131 61.3844C37.3131 58.7718 36.5448 56.2165 35.1042 54.037L53.969 35.1695C56.1312 36.6164 58.6729 37.3917 61.2745 37.3977C62.0591 37.398 62.842 37.3294 63.6146 37.1925C66.1503 36.748 68.501 35.5733 70.379 33.8129L86.1921 45.9692C83.5528 52.8396 86.9827 60.5489 93.8531 63.1882C100.723 65.8274 108.433 62.3976 111.072 55.5272C112.62 51.498 112.12 46.9687 109.732 43.3732L128.591 24.5138C134.747 28.5883 143.04 26.9009 147.114 20.7451C151.189 14.5893 149.502 6.29603 143.346 2.22183C137.19 -1.8527 128.897 -0.165249 124.822 5.99052C121.862 10.4632 121.862 16.2725 124.822 20.7451L105.963 39.6045C100.681 36.113 93.6712 36.8203 89.1932 41.297C89.1425 41.3476 89.1132 41.4063 89.0652 41.4542L73.4814 29.4765C76.4749 22.7527 73.4508 14.8755 66.727 11.8821C60.0032 8.88867 52.126 11.9127 49.1325 18.6365C47.2812 22.7954 47.6806 27.6118 50.1923 31.4085L31.3355 50.2679C25.1958 46.2091 16.9284 47.8962 12.8696 54.036C8.81104 60.1757 10.4978 68.4431 16.6376 72.5019ZM135.929 5.41449C140.345 5.41449 143.924 8.99428 143.924 13.4103C143.924 17.8263 140.345 21.4061 135.929 21.4061C131.513 21.4061 127.933 17.8263 127.933 13.4103C127.933 8.99428 131.513 5.41449 135.929 5.41449ZM92.9582 45.072C94.4581 43.5711 96.493 42.7279 98.6149 42.7282C103.031 42.7276 106.611 46.307 106.612 50.723C106.612 52.8449 105.769 54.8799 104.268 56.3797C101.103 59.3965 96.1269 59.3965 92.9619 56.3797C89.8382 53.258 89.8368 48.1954 92.9582 45.072ZM54.7519 19.4854C54.7523 19.4851 54.7523 19.4848 54.7526 19.4844C55.9646 17.7434 57.8223 16.559 59.9125 16.1955C60.3766 16.1159 60.8464 16.0759 61.3171 16.0756C62.9533 16.0772 64.5491 16.5826 65.8881 17.5228C69.5052 20.0561 70.384 25.0419 67.8507 28.659C65.3174 32.2761 60.3317 33.1546 56.7146 30.6216C53.0975 28.0883 52.2186 23.1025 54.7519 19.4854ZM18.3307 55.7331C18.332 55.7317 18.333 55.7307 18.3344 55.7294C21.4581 52.6074 26.5211 52.6084 29.6431 55.7321C32.7651 58.8558 32.7641 63.9188 29.6404 67.0408C26.4754 70.0576 21.4994 70.0576 18.3344 67.0408C15.2107 63.9191 15.2093 58.8564 18.3307 55.7331Z" fill="#FFB700"/>
</svg>
