<svg width="64" height="64" viewBox="0 0 64 64" fill="none" xmlns="http://www.w3.org/2000/svg">
<rect width="64" height="64" fill="white"/>
<path d="M55.6478 24.6455C56.6618 23.6571 57.0198 22.2065 56.5823 20.8597C56.1447 19.513 55.0024 18.55 53.601 18.3464L41.3478 16.5659C41.1073 16.531 40.8993 16.38 40.7917 16.1619L35.3119 5.05866C34.6853 3.78881 33.4163 3 32.0003 3C30.5842 3 29.3152 3.78881 28.6886 5.05866L23.2088 16.162C23.1011 16.38 22.8932 16.531 22.6526 16.566L16.5261 17.4562L10.3996 18.3464C8.99825 18.55 7.85605 19.513 7.41833 20.8597C6.98061 22.2065 7.3387 23.6571 8.35283 24.6455L17.2193 33.2882C17.3933 33.458 17.4728 33.7024 17.4317 33.9421L15.3386 46.1457C15.0993 47.5414 15.6621 48.9254 16.8077 49.7577C17.9533 50.5903 19.4439 50.6978 20.6971 50.039L31.6566 44.2772C31.8718 44.164 32.1288 44.164 32.3441 44.2772L43.3037 50.039C43.8488 50.3256 44.4387 50.4672 45.0257 50.4671C45.7881 50.4671 46.5456 50.2282 47.1928 49.7576C48.3384 48.9251 48.9013 47.5411 48.6619 46.1456L46.5688 33.942C46.5278 33.7023 46.6072 33.4579 46.7812 33.2881L55.6478 24.6455ZM43.6571 34.4416L45.7502 46.6454C45.8202 47.0538 45.5681 47.2867 45.4564 47.3678C45.3447 47.4487 45.0452 47.6168 44.6786 47.4239L33.719 41.6621C33.181 41.3794 32.5908 41.2378 32.0005 41.2378C31.4102 41.2378 30.8199 41.3794 30.282 41.662L19.3225 47.4236C18.9556 47.6165 18.6563 47.4486 18.5446 47.3675C18.4329 47.2865 18.1807 47.0536 18.2508 46.6452L20.3439 34.4416C20.5495 33.2434 20.1525 32.0215 19.2818 31.1728L10.4153 22.5301C10.1186 22.2407 10.1857 21.9042 10.2285 21.7729C10.271 21.6415 10.4147 21.3297 10.8247 21.2702L23.0777 19.4897C24.2807 19.3149 25.3203 18.5598 25.8584 17.4694L31.3382 6.36612C31.5216 5.99458 31.8624 5.95444 32.0006 5.95444C32.1385 5.95444 32.4793 5.99447 32.6628 6.36612L38.1426 17.4695C38.6807 18.5599 39.7202 19.315 40.9232 19.4898L53.1763 21.2703C53.5864 21.3298 53.7299 21.6417 53.7725 21.773C53.8152 21.9044 53.8825 22.241 53.5856 22.5302L44.7191 31.1729C43.8485 32.0215 43.4516 33.2434 43.6571 34.4416Z" fill="#FFB700"/>
<path d="M49.2574 5.05758C48.5973 4.57808 47.6736 4.72442 47.1941 5.38439L45.626 7.54258C45.1465 8.20255 45.2927 9.12644 45.9528 9.60594C46.2152 9.79636 46.5189 9.88813 46.8199 9.88813C47.2768 9.88813 47.7272 9.67692 48.0161 9.27924L49.5843 7.12105C50.0638 6.46097 49.9175 5.53708 49.2574 5.05758Z" fill="#FFB700"/>
<path d="M18.3675 7.53461L16.7994 5.37642C16.32 4.71667 15.3962 4.57033 14.736 5.04961C14.076 5.52911 13.9297 6.453 14.4092 7.11297L15.9773 9.27116C16.2664 9.66918 16.7168 9.88027 17.1738 9.88027C17.4749 9.88027 17.7787 9.78851 18.0408 9.59797C18.7008 9.11858 18.8471 8.19469 18.3675 7.53461Z" fill="#FFB700"/>
<path d="M9.41973 36.1432C9.16762 35.3674 8.33429 34.9427 7.55827 35.1948L5.0211 36.0192C4.24509 36.2713 3.8206 37.1049 4.07271 37.8807C4.27549 38.5051 4.85463 38.9019 5.47731 38.9019C5.62857 38.9019 5.78246 38.8784 5.93417 38.8291L8.47134 38.0046C9.24724 37.7525 9.67184 36.9192 9.41973 36.1432Z" fill="#FFB700"/>
<path d="M32.0005 52.5439C31.1847 52.5439 30.5233 53.2053 30.5233 54.0212V56.689C30.5233 57.5049 31.1847 58.1663 32.0005 58.1663C32.8164 58.1663 33.4778 57.5049 33.4778 56.689V54.0212C33.4778 53.2052 32.8165 52.5439 32.0005 52.5439Z" fill="#FFB700"/>
<path d="M58.9789 36.0201L56.4417 35.1957C55.666 34.9438 54.8324 35.3681 54.5803 36.1442C54.3282 36.9202 54.7527 37.7535 55.5287 38.0056L58.0658 38.8301C58.2176 38.8793 58.3713 38.9027 58.5226 38.9027C59.1454 38.9027 59.7245 38.5058 59.9273 37.8815C60.1794 37.1056 59.7548 36.2722 58.9789 36.0201Z" fill="#FFB700"/>
</svg>
