<svg width="166" height="160" viewBox="0 0 166 160" fill="none" xmlns="http://www.w3.org/2000/svg">
<path d="M154.48 0H11.0373C4.95161 0 0 4.95193 0 11.0373V102.069C0 103.591 1.23588 104.827 2.75851 104.827H162.758C164.281 104.827 165.517 103.591 165.517 102.069V11.0373C165.517 4.95193 160.565 0 154.48 0ZM160 99.3102H5.51734V11.0373C5.51734 7.99169 7.9946 5.51734 11.0373 5.51734H154.48C157.522 5.51734 160 7.99169 160 11.0373V99.3102Z" fill="#FFB700"/>
<path d="M162.758 99.3101H2.75851C1.23588 99.3101 0 100.546 0 102.069V115.859C0 121.945 4.95161 126.896 11.0373 126.896H154.48C160.565 126.896 165.517 121.945 165.517 115.859V102.069C165.517 100.546 164.281 99.3101 162.758 99.3101ZM160 115.859C160 118.905 157.522 121.379 154.48 121.379H11.0373C7.9946 121.379 5.51734 118.905 5.51734 115.859V104.827H160V115.859H160Z" fill="#FFB700"/>
<path d="M91.0343 110.345H74.4826C72.96 110.345 71.7241 111.581 71.7241 113.103C71.7241 114.626 72.96 115.862 74.4826 115.862H91.0343C92.557 115.862 93.7928 114.626 93.7928 113.103C93.7928 111.581 92.557 110.345 91.0343 110.345Z" fill="#FFB700"/>
<path d="M151.724 11.0347H13.7932C12.2706 11.0347 11.0347 12.2705 11.0347 13.7932V102.069C11.0347 103.592 12.2706 104.828 13.7932 104.828H151.724C153.247 104.828 154.483 103.592 154.483 102.069V13.7932C154.483 12.2705 153.247 11.0347 151.724 11.0347ZM148.965 99.3102H16.5517V16.5517H148.965V99.3102Z" fill="#FFB700"/>
<path d="M118.62 143.448H46.8966C42.3339 143.448 38.6208 147.161 38.6208 151.724C38.6208 156.287 42.3339 160 46.8966 160H118.621C123.183 160 126.897 156.287 126.897 151.724C126.897 147.161 123.183 143.448 118.62 143.448ZM118.62 154.483H46.8966C45.374 154.483 44.1381 153.244 44.1381 151.724C44.1381 150.204 45.374 148.966 46.8966 148.966H118.621C120.143 148.966 121.379 150.204 121.379 151.724C121.379 153.244 120.143 154.483 118.62 154.483Z" fill="#FFB700"/>
<path d="M113.103 143.448C103.95 143.448 99.3102 136.952 99.3102 124.138C99.3102 122.616 98.0743 121.38 96.5516 121.38H68.9656C67.443 121.38 66.2071 122.616 66.2071 124.138C66.2071 136.952 61.5671 143.448 52.4139 143.448C50.8913 143.448 49.6554 144.684 49.6554 146.207C49.6554 147.729 50.8913 148.965 52.4139 148.965H113.103C114.626 148.965 115.862 147.729 115.862 146.207C115.862 144.684 114.626 143.448 113.103 143.448ZM65.8508 143.448C69.2469 139.686 71.2466 134.083 71.6494 126.897H93.8701C94.27 134.083 96.2701 139.686 99.6687 143.448H65.8508Z" fill="#FFB700"/>
<path d="M131.818 81.2799L125.159 74.6207L128.863 70.916C129.55 70.229 129.826 69.2304 129.589 68.2897C129.352 67.349 128.637 66.6042 127.707 66.3229L100.121 58.0471C99.1476 57.7545 98.0966 58.0222 97.3792 58.7395C96.6593 59.4569 96.3945 60.5104 96.6868 61.4815L104.963 89.0676C105.241 89.9999 105.989 90.7144 106.929 90.9516C107.867 91.1834 108.869 90.9128 109.556 90.2262L113.456 86.3227L120.116 92.9847C120.631 93.5032 121.335 93.7929 122.066 93.7929C122.797 93.7929 123.5 93.5032 124.016 92.9847L131.817 85.1805C132.896 84.1021 132.896 82.3587 131.818 81.2799ZM122.066 87.1338L116.002 81.0675C115.299 80.364 114.378 80.0136 113.456 80.0136C112.532 80.0136 111.611 80.3666 110.91 81.0646L108.919 83.0563L103.443 64.8025L121.696 70.2785L119.561 72.4137C118.973 73.004 118.651 73.7877 118.651 74.6207C118.651 75.4567 118.976 76.2455 119.567 76.8303L125.966 83.2302L122.066 87.1338Z" fill="#FFB700"/>
<path d="M115.862 22.0691H38.6207C37.0981 22.0691 35.8622 23.305 35.8622 24.8276V38.6208C35.8622 40.1434 37.0981 41.3793 38.6207 41.3793H115.862C117.384 41.3793 118.62 40.1434 118.62 38.6208V24.8276C118.62 23.305 117.384 22.0691 115.862 22.0691ZM113.103 35.8623H41.3792V27.5864H113.103V35.8623Z" fill="#FFB700"/>
<path d="M71.7242 52.4141H49.6551C48.1325 52.4141 46.8966 53.6499 46.8966 55.1726V66.2069C46.8966 67.7295 48.1325 68.9654 49.6551 68.9654H71.7242C73.2468 68.9654 74.4827 67.7295 74.4827 66.2069V55.1726C74.4827 53.6499 73.2468 52.4141 71.7242 52.4141ZM68.9653 63.4484H52.4136V57.9311H68.9653V63.4484Z" fill="#FFB700"/>
<path d="M115.862 22.0691H38.6207C37.0981 22.0691 35.8622 23.305 35.8622 24.8276V77.2412C35.8622 78.7638 37.0981 79.9997 38.6207 79.9997H104.292C105.167 79.9997 105.986 79.5888 106.505 78.888C107.026 78.1874 107.186 77.2826 106.935 76.4466L103.443 64.8025L115.07 68.2923C115.906 68.5435 116.811 68.3835 117.509 67.862C118.209 67.3435 118.621 66.5214 118.621 65.6495V24.8276C118.62 23.305 117.384 22.0691 115.862 22.0691ZM113.103 61.9422L100.118 58.047C99.1446 57.7545 98.0937 58.0222 97.3763 58.7395C96.6564 59.4594 96.3916 60.5104 96.6838 61.4844L100.584 74.483H41.3792V27.5864H113.103V61.9422Z" fill="#FFB700"/>
</svg>
