<svg width="172" height="38" viewBox="0 0 172 38" fill="none" xmlns="http://www.w3.org/2000/svg">
<path d="M5.202 23.172C6.702 23.172 7.854 23.532 8.658 24.252C9.462 24.96 9.864 26.034 9.864 27.474V33H7.236V31.794C6.708 32.694 5.724 33.144 4.284 33.144C3.54 33.144 2.892 33.018 2.34 32.766C1.8 32.514 1.386 32.166 1.098 31.722C0.81 31.278 0.666 30.774 0.666 30.21C0.666 29.31 1.002 28.602 1.674 28.086C2.358 27.57 3.408 27.312 4.824 27.312H7.056C7.056 26.7 6.87 26.232 6.498 25.908C6.126 25.572 5.568 25.404 4.824 25.404C4.308 25.404 3.798 25.488 3.294 25.656C2.802 25.812 2.382 26.028 2.034 26.304L1.026 24.342C1.554 23.97 2.184 23.682 2.916 23.478C3.66 23.274 4.422 23.172 5.202 23.172ZM4.986 31.254C5.466 31.254 5.892 31.146 6.264 30.93C6.636 30.702 6.9 30.372 7.056 29.94V28.95H5.13C3.978 28.95 3.402 29.328 3.402 30.084C3.402 30.444 3.54 30.732 3.816 30.948C4.104 31.152 4.494 31.254 4.986 31.254ZM18.2914 23.172C19.4914 23.172 20.4574 23.532 21.1894 24.252C21.9334 24.972 22.3054 26.04 22.3054 27.456V33H19.4974V27.888C19.4974 27.12 19.3294 26.55 18.9934 26.178C18.6574 25.794 18.1714 25.602 17.5354 25.602C16.8274 25.602 16.2634 25.824 15.8434 26.268C15.4234 26.7 15.2134 27.348 15.2134 28.212V33H12.4054V23.316H15.0874V24.45C15.4594 24.042 15.9214 23.73 16.4734 23.514C17.0254 23.286 17.6314 23.172 18.2914 23.172ZM25.9127 33.144C25.4207 33.144 25.0067 32.976 24.6707 32.64C24.3347 32.304 24.1667 31.884 24.1667 31.38C24.1667 30.864 24.3347 30.45 24.6707 30.138C25.0067 29.814 25.4207 29.652 25.9127 29.652C26.4047 29.652 26.8187 29.814 27.1547 30.138C27.4907 30.45 27.6587 30.864 27.6587 31.38C27.6587 31.884 27.4907 32.304 27.1547 32.64C26.8187 32.976 26.4047 33.144 25.9127 33.144ZM39.4286 23.316V31.38C39.4286 33.156 38.9666 34.476 38.0426 35.34C37.1186 36.204 35.7686 36.636 33.9926 36.636C33.0566 36.636 32.1686 36.522 31.3286 36.294C30.4886 36.066 29.7926 35.736 29.2406 35.304L30.3566 33.288C30.7646 33.624 31.2806 33.888 31.9046 34.08C32.5286 34.284 33.1526 34.386 33.7766 34.386C34.7486 34.386 35.4626 34.164 35.9186 33.72C36.3866 33.288 36.6206 32.628 36.6206 31.74V31.326C35.8886 32.13 34.8686 32.532 33.5606 32.532C32.6726 32.532 31.8566 32.34 31.1126 31.956C30.3806 31.56 29.7986 31.008 29.3666 30.3C28.9346 29.592 28.7186 28.776 28.7186 27.852C28.7186 26.928 28.9346 26.112 29.3666 25.404C29.7986 24.696 30.3806 24.15 31.1126 23.766C31.8566 23.37 32.6726 23.172 33.5606 23.172C34.9646 23.172 36.0326 23.634 36.7646 24.558V23.316H39.4286ZM34.1186 30.228C34.8626 30.228 35.4686 30.012 35.9366 29.58C36.4166 29.136 36.6566 28.56 36.6566 27.852C36.6566 27.144 36.4166 26.574 35.9366 26.142C35.4686 25.698 34.8626 25.476 34.1186 25.476C33.3746 25.476 32.7626 25.698 32.2826 26.142C31.8026 26.574 31.5626 27.144 31.5626 27.852C31.5626 28.56 31.8026 29.136 32.2826 29.58C32.7626 30.012 33.3746 30.228 34.1186 30.228ZM51.7981 23.316V33H49.1341V31.848C48.7621 32.268 48.3181 32.592 47.8021 32.82C47.2861 33.036 46.7281 33.144 46.1281 33.144C44.8561 33.144 43.8481 32.778 43.1041 32.046C42.3601 31.314 41.9881 30.228 41.9881 28.788V23.316H44.7961V28.374C44.7961 29.934 45.4501 30.714 46.7581 30.714C47.4301 30.714 47.9701 30.498 48.3781 30.066C48.7861 29.622 48.9901 28.968 48.9901 28.104V23.316H51.7981ZM54.3995 19.644H57.2075V33H54.3995V19.644ZM69.4256 23.316L65.0516 33.594C64.6076 34.71 64.0556 35.496 63.3956 35.952C62.7476 36.408 61.9616 36.636 61.0376 36.636C60.5336 36.636 60.0356 36.558 59.5436 36.402C59.0516 36.246 58.6496 36.03 58.3376 35.754L59.3636 33.756C59.5796 33.948 59.8256 34.098 60.1016 34.206C60.3896 34.314 60.6716 34.368 60.9476 34.368C61.3316 34.368 61.6436 34.272 61.8836 34.08C62.1236 33.9 62.3396 33.594 62.5316 33.162L62.5676 33.072L58.3736 23.316H61.2716L63.9896 29.886L66.7256 23.316H69.4256ZM74.161 23.172C75.661 23.172 76.813 23.532 77.617 24.252C78.421 24.96 78.823 26.034 78.823 27.474V33H76.195V31.794C75.667 32.694 74.683 33.144 73.243 33.144C72.499 33.144 71.851 33.018 71.299 32.766C70.759 32.514 70.345 32.166 70.057 31.722C69.769 31.278 69.625 30.774 69.625 30.21C69.625 29.31 69.961 28.602 70.633 28.086C71.317 27.57 72.367 27.312 73.783 27.312H76.015C76.015 26.7 75.829 26.232 75.457 25.908C75.085 25.572 74.527 25.404 73.783 25.404C73.267 25.404 72.757 25.488 72.253 25.656C71.761 25.812 71.341 26.028 70.993 26.304L69.985 24.342C70.513 23.97 71.143 23.682 71.875 23.478C72.619 23.274 73.381 23.172 74.161 23.172ZM73.945 31.254C74.425 31.254 74.851 31.146 75.223 30.93C75.595 30.702 75.859 30.372 76.015 29.94V28.95H74.089C72.937 28.95 72.361 29.328 72.361 30.084C72.361 30.444 72.499 30.732 72.775 30.948C73.063 31.152 73.453 31.254 73.945 31.254ZM85.5224 29.202L84.1724 30.534V33H81.3644V19.644H84.1724V27.204L88.2764 23.316H91.6244L87.5924 27.42L91.9844 33H88.5824L85.5224 29.202ZM97.4333 33.144C96.4133 33.144 95.4953 32.934 94.6793 32.514C93.8753 32.082 93.2453 31.488 92.7893 30.732C92.3333 29.976 92.1053 29.118 92.1053 28.158C92.1053 27.198 92.3333 26.34 92.7893 25.584C93.2453 24.828 93.8753 24.24 94.6793 23.82C95.4953 23.388 96.4133 23.172 97.4333 23.172C98.4533 23.172 99.3653 23.388 100.169 23.82C100.973 24.24 101.603 24.828 102.059 25.584C102.515 26.34 102.743 27.198 102.743 28.158C102.743 29.118 102.515 29.976 102.059 30.732C101.603 31.488 100.973 32.082 100.169 32.514C99.3653 32.934 98.4533 33.144 97.4333 33.144ZM97.4333 30.84C98.1533 30.84 98.7413 30.6 99.1973 30.12C99.6653 29.628 99.8993 28.974 99.8993 28.158C99.8993 27.342 99.6653 26.694 99.1973 26.214C98.7413 25.722 98.1533 25.476 97.4333 25.476C96.7133 25.476 96.1193 25.722 95.6513 26.214C95.1833 26.694 94.9493 27.342 94.9493 28.158C94.9493 28.974 95.1833 29.628 95.6513 30.12C96.1193 30.6 96.7133 30.84 97.4333 30.84ZM113.969 23.316L109.883 33H106.985L102.917 23.316H105.815L108.497 29.904L111.269 23.316H113.969ZM118.704 23.172C120.204 23.172 121.356 23.532 122.16 24.252C122.964 24.96 123.366 26.034 123.366 27.474V33H120.738V31.794C120.21 32.694 119.226 33.144 117.786 33.144C117.042 33.144 116.394 33.018 115.842 32.766C115.302 32.514 114.888 32.166 114.6 31.722C114.312 31.278 114.168 30.774 114.168 30.21C114.168 29.31 114.504 28.602 115.176 28.086C115.86 27.57 116.91 27.312 118.326 27.312H120.558C120.558 26.7 120.372 26.232 120 25.908C119.628 25.572 119.07 25.404 118.326 25.404C117.81 25.404 117.3 25.488 116.796 25.656C116.304 25.812 115.884 26.028 115.536 26.304L114.528 24.342C115.056 23.97 115.686 23.682 116.418 23.478C117.162 23.274 117.924 23.172 118.704 23.172ZM118.488 31.254C118.968 31.254 119.394 31.146 119.766 30.93C120.138 30.702 120.402 30.372 120.558 29.94V28.95H118.632C117.48 28.95 116.904 29.328 116.904 30.084C116.904 30.444 117.042 30.732 117.318 30.948C117.606 31.152 117.996 31.254 118.488 31.254ZM124.611 33H133.611V34.62H124.611V33Z" fill="#18191F"/>
<path d="M170.121 6.35538L165.621 1.85161C164.487 0.716841 162.515 0.714662 161.377 1.85379L141.218 22.2117C141.128 22.3019 141.064 22.4126 141.029 22.5343L138.029 33.0432C137.954 33.3049 138.027 33.5871 138.22 33.7799C138.363 33.9229 138.554 33.9998 138.75 33.9998C138.819 33.9998 138.889 33.9903 138.956 33.9712L149.456 30.9687C149.578 30.9335 149.688 30.869 149.778 30.7795L170.121 10.6012C170.688 10.0338 171 9.28022 171 8.47831C171 7.6764 170.688 6.92273 170.121 6.35538ZM158.109 7.30944L160.869 10.0702L146.456 24.4839L145.421 22.4144C145.294 22.1602 145.034 21.9998 144.75 21.9998H143.549L158.109 7.30944ZM139.842 32.1577L140.819 28.738L143.262 31.1807L139.842 32.1577ZM148.5 29.6844L144.912 30.7094L141.29 27.0882L142.316 23.4998H144.286L145.579 26.0852C145.652 26.2303 145.77 26.3482 145.915 26.4207L148.5 27.7134L148.5 29.6844ZM150 28.4509V27.2498C150 26.9656 149.84 26.7064 149.586 26.5789L147.516 25.5445L161.93 11.1308L164.69 13.8915L150 28.4509ZM169.063 9.55824L165.756 12.8357L159.164 6.24414L162.44 2.93941C163.006 2.37248 163.994 2.37248 164.561 2.93941L169.061 7.43938C169.344 7.72281 169.5 8.09926 169.5 8.4999C169.5 8.90054 169.344 9.27699 169.063 9.55824Z" fill="#18191F"/>
<path fill-rule="evenodd" clip-rule="evenodd" d="M161.235 1.71242C162.452 0.495119 164.551 0.497292 165.763 1.71025L170.263 6.21402C170.867 6.81886 171.2 7.62339 171.2 8.47831C171.2 9.33324 170.867 10.1377 170.263 10.7425L149.919 30.9215C149.805 31.0348 149.665 31.1165 149.512 31.1608L139.011 34.1635C138.926 34.1876 138.837 34.1998 138.75 34.1998C138.502 34.1998 138.259 34.1023 138.078 33.9213C137.835 33.6772 137.742 33.3199 137.836 32.9883L140.836 22.4794C140.881 22.326 140.962 22.1852 141.076 22.0709L161.235 1.71242ZM138.029 33.0432C137.954 33.3049 138.027 33.5871 138.22 33.7799C138.363 33.9229 138.554 33.9998 138.75 33.9998C138.819 33.9998 138.889 33.9903 138.956 33.9712L149.456 30.9687C149.578 30.9335 149.688 30.869 149.778 30.7795L170.121 10.6012C170.688 10.0338 171 9.28022 171 8.47831C171 7.6764 170.688 6.92273 170.121 6.35538L165.621 1.85161C164.487 0.716841 162.515 0.714662 161.377 1.85379L141.218 22.2117C141.128 22.3019 141.064 22.4126 141.029 22.5343L138.029 33.0432ZM145.421 22.4144L146.456 24.4839L160.869 10.0702L158.109 7.30944L143.549 21.9998H144.75C145.034 21.9998 145.294 22.1602 145.421 22.4144ZM144.029 21.7998H144.75C145.11 21.7998 145.439 22.0031 145.6 22.3247L146.51 24.1463L160.586 10.0702L158.109 7.59292L144.029 21.7998ZM144.912 30.7094L141.29 27.0882L142.316 23.4998H144.286L145.579 26.0852C145.652 26.2303 145.77 26.3482 145.915 26.4207L148.5 27.7134L148.5 29.6844L144.912 30.7094ZM148.3 29.5335L144.97 30.4848L141.515 27.03L142.466 23.6998H144.163L145.4 26.1746C145.492 26.3584 145.641 26.5077 145.825 26.5996L148.3 27.837V29.5335ZM149.586 26.5789C149.84 26.7064 150 26.9656 150 27.2498V28.4509L164.69 13.8915L161.93 11.1308L147.516 25.5445L149.586 26.5789ZM147.854 25.4896L149.675 26.4C149.997 26.5613 150.2 26.8897 150.2 27.2498V27.9711L164.407 13.8909L161.93 11.4136L147.854 25.4896ZM140.819 28.738L143.262 31.1807L139.842 32.1577L140.819 28.738ZM140.133 31.8665L140.918 29.1197L142.88 31.0818L140.133 31.8665ZM165.756 12.5535L168.921 9.41681V9.41681C169.165 9.17322 169.3 8.84757 169.3 8.4999C169.3 8.15235 169.165 7.82675 168.919 7.5808L164.419 3.08083C163.93 2.59209 163.07 2.59201 162.581 3.08058V3.08058L159.446 6.24351L165.756 12.5535ZM165.756 12.8357L169.063 9.55824C169.344 9.27699 169.5 8.90054 169.5 8.4999C169.5 8.09926 169.344 7.72281 169.061 7.43938L164.561 2.93941C163.994 2.37248 163.006 2.37248 162.44 2.93941L159.164 6.24414L165.756 12.8357Z" fill="#18191F"/>
</svg>
