<svg width="64" height="64" viewBox="0 0 64 64" fill="none" xmlns="http://www.w3.org/2000/svg">
<rect width="64" height="64" fill="white"/>
<path d="M55.0781 11H8.92188C6.20248 11 4 13.2162 4 15.9219V45.4531C4 48.1749 6.21867 50.375 8.92188 50.375H55.0781C57.7748 50.375 60 48.1842 60 45.4531V15.9219C60 13.221 57.8063 11 55.0781 11ZM54.3888 14.2812C53.3833 15.2815 36.0778 32.4958 35.4803 33.0901C34.5506 34.0198 33.3147 34.5317 32 34.5317C30.6853 34.5317 29.4494 34.0197 28.5166 33.0871C28.1148 32.6873 11.0003 15.6631 9.61116 14.2812H54.3888ZM7.28125 44.7853V16.5918L21.4604 30.6962L7.28125 44.7853ZM9.61323 47.0938L23.7868 33.0103L26.1995 35.4103C27.7489 36.9597 29.8089 37.813 32 37.813C34.1911 37.813 36.2511 36.9597 37.7974 35.4134L40.2132 33.0103L54.3868 47.0938H9.61323ZM56.7188 44.7853L42.5396 30.6962L56.7188 16.5918V44.7853Z" fill="#FFB700"/>
</svg>
