<svg width="64" height="64" viewBox="0 0 64 64" fill="none" xmlns="http://www.w3.org/2000/svg">
<rect width="64" height="64" fill="white"/>
<path d="M53.337 35.5703C52.6962 34.9297 51.6575 34.9297 51.0168 35.5703C50.3761 36.2109 50.3761 37.2498 51.0168 37.8905L54.3264 41.2C54.6467 41.5204 55.0665 41.6805 55.4864 41.6805C55.9063 41.6805 56.3262 41.5203 56.6466 41.2C57.2873 40.5594 57.2873 39.5206 56.6466 38.8799L53.337 35.5703Z" fill="#FFB700"/>
<path d="M52.1768 21.9931C52.5966 21.9931 53.0166 21.8329 53.337 21.5126L56.6466 18.2031C57.2873 17.5624 57.2873 16.5236 56.6466 15.8829C56.0058 15.2422 54.9671 15.2422 54.3264 15.8829L51.0168 19.1925C50.3761 19.8331 50.3761 20.8719 51.0168 21.5126C51.3372 21.833 51.7569 21.9931 52.1768 21.9931Z" fill="#FFB700"/>
<path d="M58.3594 26.9004H53.6789C52.7728 26.9004 52.0383 27.635 52.0383 28.541C52.0383 29.4471 52.7728 30.1816 53.6789 30.1816H58.3594C59.2654 30.1816 60 29.4471 60 28.541C60 27.635 59.2654 26.9004 58.3594 26.9004Z" fill="#FFB700"/>
<path d="M47.6676 5.20923C47.1496 4.91906 46.5153 4.93153 46.009 5.2415L27.22 16.7483H18.8789C17.0975 16.6541 15.4029 17.2749 14.102 18.4995C13.6178 18.9552 13.2096 19.4811 12.8843 20.0543H8.75639C6.13369 20.0543 4 22.188 4 24.8107V32.2713C4 34.894 6.13369 37.0277 8.75639 37.0277H12.8761C13.5367 38.2088 14.534 39.1878 15.7464 39.8357L10.0304 49.7363C9.81109 50.1162 9.75302 50.568 9.86906 50.9911C9.98522 51.414 10.2659 51.7729 10.6484 51.9875L17.887 56.0485C18.1408 56.1909 18.4164 56.2586 18.6883 56.2586C19.2556 56.2586 19.807 55.9638 20.1105 55.4379L28.2727 41.3004L46.0276 51.8517C46.2857 52.0051 46.5756 52.0819 46.8657 52.0819C47.1455 52.0819 47.4254 52.0105 47.677 51.8672C48.1897 51.5755 48.5063 51.031 48.5063 50.4413V6.64062C48.5063 6.04694 48.1855 5.49951 47.6676 5.20923ZM8.75639 33.7465C7.94297 33.7465 7.28125 33.0848 7.28125 32.2713V24.8107C7.28125 23.9972 7.94297 23.3355 8.75639 23.3355H11.9998C11.9996 23.36 11.9979 23.3844 11.9979 23.4089V33.6731C11.9979 33.6977 11.9995 33.722 11.9998 33.7465H8.75639ZM15.2792 23.4089C15.2792 22.4484 15.6698 21.5298 16.3507 20.8889C16.9989 20.2789 17.8446 19.9721 18.7332 20.0266C18.7664 20.0286 26.042 20.0295 26.042 20.0295V37.4005H18.8865C16.8599 37.2549 15.2792 35.626 15.2792 33.673V23.4089ZM18.0792 52.3939L13.7024 49.9386L18.9501 40.8492C18.9817 40.7945 19.009 40.7384 19.0336 40.6818H24.8411L18.0792 52.3939ZM45.2251 47.5578L29.3233 38.1077V19.308L45.2251 9.56925V47.5578Z" fill="#FFB700"/>
</svg>
