<svg width="64" height="64" viewBox="0 0 64 64" fill="none" xmlns="http://www.w3.org/2000/svg">
<rect width="64" height="64" fill="white"/>
<path d="M56.3055 9H7.69453C5.65747 9 4 10.6575 4 12.6945V49.6194C4 51.6566 5.65747 53.3139 7.69453 53.3139H56.3055C58.3425 53.3139 60 51.6566 60 49.6194V12.6945C60 10.6575 58.3427 9 56.3055 9ZM7.69453 12.1667H56.3055C56.5915 12.1667 56.8333 12.4085 56.8333 12.6945V37.2841L48.3658 26.4171C47.7375 25.6108 46.8179 25.1276 45.8426 25.0917C44.8674 25.0552 43.9146 25.4698 43.2285 26.2279L32.2423 38.3696C31.9777 38.6618 31.3908 38.7424 31.0571 38.5326L22.0238 32.8439C20.4759 31.8687 18.2104 31.9692 16.7548 33.0771L7.16674 40.3742V12.6945C7.16674 12.4085 7.40847 12.1667 7.69453 12.1667ZM56.3055 50.1471H7.69453C7.40847 50.1471 7.16674 49.9054 7.16674 49.6194V44.3537L18.6728 35.597C19.0724 35.293 19.912 35.2559 20.3366 35.5233L29.3698 41.2121C31.0026 42.2404 33.2957 41.925 34.5905 40.4943L45.5768 28.3526C45.6426 28.2797 45.6897 28.2576 45.7262 28.2561C45.7539 28.2572 45.8075 28.2859 45.8679 28.3633L56.8333 42.4359V49.6191C56.8333 49.9054 56.5915 50.1471 56.3055 50.1471Z" fill="#FFB700"/>
<path d="M27.4007 30.4377C30.4934 30.4377 33.0093 27.9218 33.0093 24.8292C33.0093 21.7366 30.4932 19.2207 27.4007 19.2207C24.3081 19.2207 21.7922 21.7368 21.7922 24.8292C21.7922 27.9216 24.3081 30.4377 27.4007 30.4377ZM27.4007 22.3872C28.7472 22.3872 29.8425 23.4825 29.8425 24.829C29.8425 26.1755 28.7472 27.2708 27.4007 27.2708C26.0543 27.2708 24.959 26.1755 24.959 24.829C24.959 23.4827 26.0543 22.3872 27.4007 22.3872Z" fill="#FFB700"/>
</svg>
