<svg width="101" height="160" viewBox="0 0 101 160" fill="none" xmlns="http://www.w3.org/2000/svg">
<path d="M97.3219 0H3.125C1.39938 0 0 1.39938 0 3.125V85.9672C0 95.5175 7.82469 103.287 17.4425 103.287H37.9603V109.271C37.9603 116.347 36.3587 126.625 33.2978 132.579C31.7709 135.549 31.0672 138.895 31.2625 142.255C31.8181 151.822 39.8131 159.61 49.4637 159.985C49.7216 159.995 49.9781 160 50.2347 160C55.1956 160 59.8591 158.13 63.4375 154.688C67.1641 151.103 69.2159 146.293 69.2159 141.143C69.2159 138.284 68.5875 135.538 67.3478 132.979C64.19 126.459 62.4856 115.897 62.4856 109.269V103.287H83.0034C92.6212 103.287 100.446 95.5172 100.446 85.9669V3.125C100.447 1.39938 99.0475 0 97.3219 0ZM94.1969 6.25V35.695C94.1969 40.2825 90.43 44.0147 85.8003 44.0147C81.1706 44.0147 77.4037 40.2825 77.4037 35.695C77.4037 33.9694 76.0044 32.57 74.2787 32.57C72.5531 32.57 71.1537 33.9694 71.1537 35.695V43.5903C71.1537 48.1778 67.3872 51.91 62.7575 51.91C58.1278 51.91 54.3609 48.1778 54.3609 43.5903V6.25H94.1969ZM6.25 6.25H16.065V18.2866C16.065 20.0122 17.4644 21.4116 19.19 21.4116C20.9156 21.4116 22.315 20.0122 22.315 18.2866V6.25H29.1469V37.8466C29.1469 39.5722 30.5462 40.9716 32.2719 40.9716C33.9975 40.9716 35.3969 39.5722 35.3969 37.8466V6.25H48.1106V43.59C48.1106 51.6238 54.6809 58.1597 62.7572 58.1597C69.5522 58.1597 75.2809 53.5328 76.9278 47.28C79.3916 49.1516 82.4681 50.2647 85.8003 50.2647C88.9216 50.2647 91.8178 49.2881 94.1969 47.6266V75.8709H6.25V6.25ZM94.1969 85.9672C94.1969 92.0713 89.1759 97.0372 83.0044 97.0372H59.3616C57.6359 97.0372 56.2366 98.4366 56.2366 100.162V109.27C56.2366 116.776 58.1212 128.267 61.7237 135.704C62.5487 137.406 62.9669 139.237 62.9669 141.143C62.9669 144.577 61.5956 147.788 59.1059 150.183C56.5784 152.615 53.2337 153.873 49.7078 153.74C43.2353 153.489 37.8744 148.285 37.5031 141.893C37.3725 139.647 37.8406 137.414 38.8572 135.437C42.5356 128.282 44.2113 116.858 44.2113 109.271V100.163C44.2113 98.4372 42.8119 97.0378 41.0863 97.0378H17.4434C11.2719 97.0378 6.25094 92.0719 6.25094 85.9678V82.1212H94.1978V85.9672H94.1969Z" fill="#FFB700"/>
</svg>
