<svg width="64" height="64" viewBox="0 0 64 64" fill="none" xmlns="http://www.w3.org/2000/svg">
<rect width="64" height="64" fill="white"/>
<path d="M41.6084 56.6126V54.9502C41.6084 54.0395 40.8718 53.2972 39.9631 53.288C39.9624 53.288 39.9616 53.288 39.9609 53.288L41.6084 56.6126ZM41.6084 56.6126L22.3287 56.6123V54.9499C22.3287 54.0381 23.067 53.2952 23.9771 53.2877C23.9885 53.2878 24.0006 53.2878 24.0131 53.2876L39.9212 53.2879L41.6084 56.6126ZM18.8089 38.1368L18.8089 38.1368C18.6655 38.4302 18.6384 38.767 18.7329 39.0795L22.348 51.0306C20.8185 51.6741 19.7412 53.188 19.7412 54.9499V57.9061C19.7412 58.6206 20.3204 59.1998 21.035 59.1998L42.9021 59.2001C43.2453 59.2001 43.5744 59.0638 43.817 58.8212C44.0595 58.5786 44.1959 58.2495 44.1959 57.9064V54.9502C44.1959 53.1884 43.1186 51.6744 41.5892 51.0309L45.2045 39.0796C45.2991 38.7671 45.2719 38.4303 45.1286 38.1369L45.1286 38.1369L33.1318 13.5902C33.1316 13.5899 33.1315 13.5896 33.1313 13.5892C32.6723 12.6267 31.2647 12.6269 30.8057 13.5891C30.8056 13.5895 30.8054 13.5898 30.8052 13.5902L18.8089 38.1368ZM27.9407 39.6281H27.9405L27.9408 39.6364C28.1618 44.9709 35.7767 44.9687 35.9968 39.6363L35.997 39.6364V39.6281C35.997 37.8587 34.8508 36.3531 33.2626 35.8131V19.7506L42.5808 38.817L38.9859 50.7005L24.9514 50.7002L21.3566 38.8166L30.675 19.7497V35.8131C29.0869 36.3531 27.9407 37.8587 27.9407 39.6281ZM8.80004 6.82432L8.79989 6.82432L8.80004 6.83188C8.87347 10.7066 14.0903 11.5994 15.5117 8.12184H27.9405V9.56245C27.9405 10.277 28.5197 10.8562 29.2342 10.8562H34.7029C35.4175 10.8562 35.9967 10.277 35.9967 9.56245V8.12184H48.4254C49.8479 11.6004 55.064 10.7055 55.1371 6.83187L55.1371 6.83187V6.82809C55.1371 4.90837 53.5756 3.34687 51.6559 3.34687C50.1927 3.34687 48.9383 4.25395 48.424 5.53435H35.9967V4.09374C35.9967 3.37921 35.4175 2.8 34.7029 2.8H29.2342C28.5197 2.8 27.9405 3.37921 27.9405 4.09374V5.53435H15.5118C14.0898 2.05628 8.87313 2.95014 8.80004 6.82432ZM31.9687 38.1874C32.7615 38.1874 33.407 38.8316 33.4093 39.6239C33.326 41.5389 30.6109 41.5388 30.5279 39.6239C30.5302 38.8316 31.1758 38.1874 31.9687 38.1874ZM12.2812 7.72184C11.79 7.72184 11.3897 7.32294 11.3875 6.83218C11.4407 5.64256 13.122 5.64254 13.175 6.83217C13.1728 7.32295 12.7726 7.72184 12.2812 7.72184ZM33.4092 8.26871H30.528V5.38748H33.4092V8.26871ZM51.6559 7.72184C51.1646 7.72184 50.7644 7.32293 50.7622 6.83216C50.8154 5.64258 52.4966 5.64255 52.5496 6.83213C52.5475 7.32291 52.1472 7.72184 51.6559 7.72184Z" fill="#FFB700" stroke="#FFB700" stroke-width="0.4"/>
</svg>
